<svg id="Layer_1" data-name="Layer 1" xmlns="http://www.w3.org/2000/svg" viewBox="0 0 80 95"><defs><style>.cls-1{fill:red;}</style></defs><title>pagamentos_icone_calendario</title><path class="cls-1" d="M30.25,45.9a1.13,1.13,0,0,0-1.13-1.13H25.18a1.13,1.13,0,0,0-1.13,1.13v3.94A1.13,1.13,0,0,0,25.18,51h3.94a1.13,1.13,0,0,0,1.13-1.13Zm0,0"/><path class="cls-1" d="M40.1,45.9A1.13,1.13,0,0,0,39,44.78H35A1.13,1.13,0,0,0,33.9,45.9v3.94A1.13,1.13,0,0,0,35,51H39a1.13,1.13,0,0,0,1.13-1.13Zm0,0"/><path class="cls-1" d="M50,45.9a1.13,1.13,0,0,0-1.13-1.13H44.88a1.13,1.13,0,0,0-1.13,1.13v3.94A1.13,1.13,0,0,0,44.88,51h3.94A1.13,1.13,0,0,0,50,49.84Zm0,0"/><path class="cls-1" d="M30.25,55.75a1.13,1.13,0,0,0-1.13-1.13H25.18a1.13,1.13,0,0,0-1.13,1.13v3.94a1.13,1.13,0,0,0,1.13,1.13h3.94a1.13,1.13,0,0,0,1.13-1.13Zm0,0"/><path class="cls-1" d="M40.1,55.75A1.13,1.13,0,0,0,39,54.62H35a1.13,1.13,0,0,0-1.13,1.13v3.94A1.13,1.13,0,0,0,35,60.82H39a1.13,1.13,0,0,0,1.13-1.13Zm0,0"/><path class="cls-1" d="M50,55.75a1.13,1.13,0,0,0-1.13-1.13H44.88a1.13,1.13,0,0,0-1.13,1.13v3.94a1.13,1.13,0,0,0,1.13,1.13h3.94A1.13,1.13,0,0,0,50,59.69Zm0,0"/><path class="cls-1" d="M57,24v6a4.92,4.92,0,0,1-4.93,4.91H49A4.94,4.94,0,0,1,44,30V24H30v6a4.94,4.94,0,0,1-5,4.91H21.93A4.92,4.92,0,0,1,17,30V24a4.48,4.48,0,0,0-4.33,4.46V63.72a4.48,4.48,0,0,0,4.46,4.49H56.87a4.49,4.49,0,0,0,4.46-4.49V28.45A4.48,4.48,0,0,0,57,24ZM55.55,61.53a1.93,1.93,0,0,1-1.93,1.93H20.29a1.93,1.93,0,0,1-1.93-1.93V43.31a1.93,1.93,0,0,1,1.93-1.93H53.63a1.93,1.93,0,0,1,1.93,1.93Zm0,0"/><path class="cls-1" d="M21.92,31.7H25A1.69,1.69,0,0,0,26.69,30V20.14A1.69,1.69,0,0,0,25,18.45H21.92a1.69,1.69,0,0,0-1.69,1.69V30a1.69,1.69,0,0,0,1.69,1.69Zm0,0"/><path class="cls-1" d="M48.92,31.7H52A1.69,1.69,0,0,0,53.69,30V20.14A1.69,1.69,0,0,0,52,18.45H48.92a1.69,1.69,0,0,0-1.69,1.69V30a1.69,1.69,0,0,0,1.69,1.69Zm0,0"/></svg>