<svg xmlns="http://www.w3.org/2000/svg" viewBox="1301.277 2341 16.723 18.008">
  <defs>
    <style>
      .cls-1 {
        fill: #fff;
      }
    </style>
  </defs>
  <g id="Group_1573" data-name="Group 1573" transform="translate(1301.254 2340.977)">
    <g id="Group_1572" data-name="Group 1572" transform="translate(0.023 0.023)">
      <path id="Path_1108" data-name="Path 1108" class="cls-1" d="M4.778,11.867H14.7a2.057,2.057,0,0,0,2.048-2.048V5.481a478.412,478.412,0,0,1-.04-.04l-.02-.02a.02.02,0,0,0-.02-.02l-.02-.02a.02.02,0,0,0-.02-.02l-.02-.02-.02-.02-.02-.02-.02-.02-.02-.02-.02-.02a598.009,598.009,0,0,1-.04-.04l-.04-.02-.02-.02h-.1L3.754,3.432V1.5l-.02-.04v-.02c0-.02,0-.02-.02-.02V1.4a.02.02,0,0,0-.02-.02.02.02,0,0,0-.02-.02.02.02,0,0,0-.02-.02l-.02-.02-.04-.04-.02-.02-.02-.02a.02.02,0,0,1-.02-.02l-.02-.02a.02.02,0,0,1-.02-.02h-.02a.07.07,0,0,1-.04-.02L.721.059A.52.52,0,0,0,.059.32.527.527,0,0,0,.32.982L2.73,2.007V12.951a2.057,2.057,0,0,0,1.787,2.028A2.014,2.014,0,1,0,7.971,15h4.5a1.959,1.959,0,0,0-.281,1.024A2.008,2.008,0,1,0,14.2,14.015H4.758a1.037,1.037,0,0,1-1.044-1.044V11.626a2.666,2.666,0,0,0,1.064.241Zm2.49,4.117a1.024,1.024,0,1,1-1.024-1.024,1.042,1.042,0,0,1,1.024,1.024Zm7.972,0a1.024,1.024,0,1,1-1.024-1.024,1.042,1.042,0,0,1,1.024,1.024ZM14.7,10.862H4.778A1.037,1.037,0,0,1,3.734,9.818V4.436L15.742,6.083V9.818A1.037,1.037,0,0,1,14.7,10.862Zm0,0" transform="translate(-0.023 -0.023)"/>
    </g>
  </g>
</svg>
