<svg xmlns="http://www.w3.org/2000/svg" viewBox="0 0 142.03 138.41"><defs><style>.a{fill:#cc0000;}</style></defs><title>icone_carrinho</title><path class="a" d="M59.1,105.37a9.46,9.46,0,1,0,9.46,9.46A9.47,9.47,0,0,0,59.1,105.37Zm0,13.64a4.18,4.18,0,1,1,4.18-4.18A4.18,4.18,0,0,1,59.1,119Z"/><path class="a" d="M92.29,105.37a9.46,9.46,0,1,0,9.46,9.46A9.47,9.47,0,0,0,92.29,105.37Zm0,13.64a4.18,4.18,0,1,1,4.18-4.18A4.18,4.18,0,0,1,92.29,119Z"/><path class="a" d="M56.77,60.85H94.62a2.64,2.64,0,1,0,0-5.28H56.77a2.64,2.64,0,0,0,0,5.28Z"/><path class="a" d="M92.56,69.28H58.83a2.64,2.64,0,1,0,0,5.28H92.56a2.64,2.64,0,1,0,0-5.28Z"/><path class="a" d="M120.38,43.8a5.26,5.26,0,0,0-4.09-1.95H34l-1.66-8.07A5.29,5.29,0,0,0,29.29,30L17.69,25a2.64,2.64,0,0,0-2.1,4.85l11.59,5L40,96.88a5.3,5.3,0,0,0,5.17,4.22h63.27a2.64,2.64,0,0,0,0-5.28H45.14l-1.55-7.55H108.9a5.3,5.3,0,0,0,5.17-4.22l7.39-35.86A5.26,5.26,0,0,0,120.38,43.8ZM108.9,83H42.49L35.11,47.13h81.18Z"/></svg>
