<svg xmlns="http://www.w3.org/2000/svg" viewBox="-1407.683 3294.119 9.129 8.607"><defs><style>.a{fill:#f4b905;}</style></defs><g transform="translate(-1407.683 3294.119)"><g transform="translate(0 0)"><path class="a" d="M4.776.111,5.941,2.848l2.97.233a.221.221,0,0,1,.116.408L6.814,5.411l.7,2.912a.228.228,0,0,1-.349.233L4.6,7.041,2.038,8.556a.228.228,0,0,1-.349-.233l.7-2.912L.058,3.547C-.058,3.372,0,3.139.233,3.139L3.2,2.906,4.368.169c.058-.233.291-.233.408-.058Zm0,0" transform="translate(0 0.014)"/></g></g></svg>