<svg xmlns="http://www.w3.org/2000/svg" viewBox="951 317 54 50"><defs><style>.a{fill:#3064a0;}.b{fill:#fff;}</style></defs><g transform="translate(896 181)"><rect class="a" width="54" height="50" transform="translate(55 136)"/><path class="b" d="M11.192,0h-2.8C5.26,0,3.246,2.071,3.246,5.288V7.723H.448A.442.442,0,0,0,0,8.171V11.7a.442.442,0,0,0,.448.448h2.8V21.07a.442.442,0,0,0,.448.448H7.359a.442.442,0,0,0,.448-.448V12.144h3.274a.442.442,0,0,0,.448-.448V8.171a.481.481,0,0,0-.448-.448h-3.3V5.652c0-1.007.224-1.511,1.539-1.511h1.875a.442.442,0,0,0,.448-.448V.448A.442.442,0,0,0,11.192,0Zm0,0" transform="translate(74.548 150.313)"/></g></svg>