<svg xmlns="http://www.w3.org/2000/svg" viewBox="951 425 54 49"><defs><style>.a{fill:#ff0200;}.b{fill:#fff;}</style></defs><g transform="translate(896 208)"><rect class="a" width="54" height="49" transform="translate(55 217)"/><g transform="translate(69.608 236.472)"><path class="b" d="M8.8,9.746h3.921A4.978,4.978,0,1,1,11.375,4.4a.54.54,0,0,0,.734,0l1.44-1.353a.539.539,0,0,0,0-.783A7.979,7.979,0,0,0,8.188.07,8.026,8.026,0,1,0,16.04,8.541c.005-.055.011-1.84.011-1.84H8.8a.538.538,0,0,0-.537.537V9.209A.534.534,0,0,0,8.8,9.746Z" transform="translate(0 0)"/><path class="b" d="M328.861,83.1V81.171a.471.471,0,0,0-.471-.471h-1.621a.471.471,0,0,0-.471.471V83.1h-1.928a.471.471,0,0,0-.471.471V85.19a.471.471,0,0,0,.471.471H326.3v1.927a.471.471,0,0,0,.471.471h1.621a.471.471,0,0,0,.471-.471V85.661h1.927a.471.471,0,0,0,.471-.471V83.569a.471.471,0,0,0-.471-.471Z" transform="translate(-306.168 -76.217)"/></g></g></svg>