<svg xmlns="http://www.w3.org/2000/svg" viewBox="0 0 232 162"><defs><style>.a,.c,.e{fill:#1d1d1b;}.a,.c{stroke:#1d1d1b;}.a,.b,.c{stroke-miterlimit:10;}.a,.b{stroke-width:0.58px;}.b,.d{fill:#be1622;}.b{stroke:#be1622;}.c{stroke-width:0.5px;}</style></defs><title>logo_oficial</title><path class="a" d="M53.11,106.75V79.27L37.42,104.65a1,1,0,0,1-1.75,0L20,79.27v27.48a1.05,1.05,0,1,1-2.1,0V75.6A1.06,1.06,0,0,1,19.8,75l16.74,27.13L53.29,75a1.06,1.06,0,0,1,1.93.58v31.16a1,1,0,1,1-2.1,0Z"/><path class="a" d="M67.76,104a12.6,12.6,0,0,1,8.93-21.53,12.62,12.62,0,0,1,12.19,9.34,5.18,5.18,0,0,1-4.73,6.3H66.59a10.66,10.66,0,0,0,10.09,7.53,1,1,0,0,1,1,1.05,1.08,1.08,0,0,1-1,1A12.64,12.64,0,0,1,67.76,104Zm16.39-8A2.85,2.85,0,0,0,87,93.16a3.68,3.68,0,0,0-.12-.88A10.54,10.54,0,0,0,66.18,95a5,5,0,0,0,.06.93Z"/><path class="a" d="M122.43,95.32v7.18a1.05,1.05,0,0,1-2.1,0V95.32a10.62,10.62,0,0,0-21.24,0v7.18a1,1,0,1,1-2.1,0V83.65a1,1,0,1,1,2.1,0v4.61a12.84,12.84,0,0,1,1.63-2,12.82,12.82,0,0,1,18,0A12.81,12.81,0,0,1,122.43,95.32Z"/><path class="a" d="M152.94,83.59a1.71,1.71,0,0,1-.12.52l-18,31.16a1,1,0,0,1-.88.52,1.09,1.09,0,0,1-1.11-1,1.54,1.54,0,0,1,.18-.58l5.54-9.63-11.2-20.54a1.06,1.06,0,0,1,1.87-1l10.56,19.37L151,83.07a1.06,1.06,0,0,1,2,.52Z"/><path class="b" d="M161.23,104.07a12.66,12.66,0,0,1,8.93-21.59,12.63,12.63,0,1,1,0,25.26A12.58,12.58,0,0,1,161.23,104.07Zm-1.58-8.93a10.53,10.53,0,1,0,10.5-10.56A10.53,10.53,0,0,0,159.65,95.14Z"/><path class="b" d="M193.9,104.07a12.66,12.66,0,0,1,8.93-21.59,12.63,12.63,0,1,1,0,25.26A12.58,12.58,0,0,1,193.9,104.07Zm-1.58-8.93a10.53,10.53,0,1,0,10.5-10.56A10.53,10.53,0,0,0,192.32,95.14Z"/><path class="c" d="M37.13,133.43a.17.17,0,0,1-.22-.08l-.48-1H33.31l-.46,1a.17.17,0,0,1-.15.1.16.16,0,0,1-.14-.22l2.12-4.8a.17.17,0,0,1,.15-.1.16.16,0,0,1,.14.09l2.24,4.8A.16.16,0,0,1,37.13,133.43ZM36.28,132l-1.45-3.11L33.45,132Z"/><path class="c" d="M46.74,133.28v-4.23L44.33,133a.15.15,0,0,1-.27,0l-2.41-3.9v4.23a.16.16,0,1,1-.32,0v-4.79a.16.16,0,0,1,.3-.09l2.58,4.17,2.58-4.17a.16.16,0,0,1,.3.09v4.79a.16.16,0,0,1-.32,0Z"/><path class="c" d="M51.45,133.26a.16.16,0,0,1-.16.16H48.62a.16.16,0,0,1-.16-.16v-4.8a.16.16,0,0,1,.16-.16h2.67a.16.16,0,0,1,0,.32H48.78v2.07h1.7a.17.17,0,0,1,.16.16.16.16,0,0,1-.16.16h-1.7v2.08h2.51A.16.16,0,0,1,51.45,133.26Z"/><path class="c" d="M52.93,133.43a.16.16,0,0,1-.16-.16v-4.8a.16.16,0,0,1,.16-.16.17.17,0,0,1,.16.16v4.64h2.41a.16.16,0,1,1,0,.32Z"/><path class="c" d="M60.84,128.46v4.8a.16.16,0,1,1-.32,0V131H57.28v2.24a.16.16,0,1,1-.32,0v-4.8a.16.16,0,0,1,.32,0v2.23h3.23v-2.23a.16.16,0,1,1,.32,0Z"/><path class="c" d="M62.09,130.89a2.56,2.56,0,1,1,2.56,2.56A2.58,2.58,0,0,1,62.09,130.89Zm.32,0a2.24,2.24,0,1,0,2.24-2.23A2.25,2.25,0,0,0,62.42,130.89Z"/><path class="c" d="M71.72,133.19a.16.16,0,0,1-.14.23.17.17,0,0,1-.14-.09L70.29,131H68.84v2.24a.16.16,0,1,1-.32,0v-4.8a.17.17,0,0,1,.16-.16h1.7a1.36,1.36,0,0,1,.25,2.69Zm-1.31-2.49a1,1,0,0,0,0-2.07H68.84v2.07Z"/><path class="c" d="M78.69,133.26a.16.16,0,0,1-.16.16H75.85a.16.16,0,0,1-.16-.16v-4.8a.16.16,0,0,1,.16-.16h2.67a.16.16,0,0,1,0,.32H76v2.07h1.7a.17.17,0,0,1,.16.16.16.16,0,0,1-.16.16H76v2.08h2.51A.16.16,0,0,1,78.69,133.26Z"/><path class="c" d="M84.63,133.16a.16.16,0,0,1-.12.27.14.14,0,0,1-.12-.05l-2.1-2.27-2.09,2.27a.18.18,0,0,1-.13.05.16.16,0,0,1-.12-.27l2.12-2.3L80,128.58a.16.16,0,0,1,0-.22.16.16,0,0,1,.23,0l2.09,2.27,2.1-2.27a.15.15,0,0,1,.22,0,.16.16,0,0,1,0,.22l-2.11,2.29Z"/><path class="c" d="M85.93,133.26v-4.8a.17.17,0,0,1,.16-.16h1.7a1.36,1.36,0,0,1,0,2.72H86.25v2.24a.16.16,0,1,1-.32,0Zm.32-2.57h1.54a1,1,0,0,0,0-2.07H86.25Z"/><path class="c" d="M93.26,133.26a.16.16,0,0,1-.16.16H90.42a.16.16,0,0,1-.16-.16v-4.8a.16.16,0,0,1,.16-.16H93.1a.16.16,0,0,1,0,.32H90.58v2.07h1.7a.17.17,0,0,1,.16.16.16.16,0,0,1-.16.16h-1.7v2.08H93.1A.16.16,0,0,1,93.26,133.26Z"/><path class="c" d="M97.82,133.19a.16.16,0,0,1-.14.23.17.17,0,0,1-.14-.09L96.38,131H94.94v2.24a.16.16,0,1,1-.32,0v-4.8a.17.17,0,0,1,.16-.16h1.7a1.36,1.36,0,0,1,.25,2.69Zm-1.31-2.49a1,1,0,0,0,0-2.07H94.94v2.07Z"/><path class="c" d="M100.75,133.28a.16.16,0,0,1-.16.16H99.22a.16.16,0,1,1,0-.32h.52v-4.48h-.52a.16.16,0,1,1,0-.32h1.37a.16.16,0,1,1,0,.32h-.53v4.48h.53A.16.16,0,0,1,100.75,133.28Z"/><path class="c" d="M105,133.26a.16.16,0,0,1-.16.16h-2.67a.16.16,0,0,1-.16-.16v-4.8a.16.16,0,0,1,.16-.16h2.67a.16.16,0,0,1,0,.32h-2.51v2.07h1.7a.17.17,0,0,1,.16.16.16.16,0,0,1-.16.16h-1.7v2.08h2.51A.16.16,0,0,1,105,133.26Zm-1.44-6.54-.85.47a.11.11,0,1,1-.1-.19l.9-.49.05,0,.05,0,.9.49a.1.1,0,0,1,0,.14.11.11,0,0,1-.15,0Z"/><path class="c" d="M109.85,133.38,106.67,129v4.3a.16.16,0,1,1-.32,0v-4.8a.16.16,0,0,1,.11-.15.17.17,0,0,1,.19.06l3.18,4.39v-4.3a.16.16,0,0,1,.16-.16.17.17,0,0,1,.16.16v4.8a.17.17,0,0,1-.16.16A.16.16,0,0,1,109.85,133.38Z"/><path class="c" d="M115.75,132.6a.17.17,0,0,1,0,.22,2.6,2.6,0,0,1-1.67.62,2.56,2.56,0,0,1,0-5.12,2.6,2.6,0,0,1,1.67.62.17.17,0,0,1,0,.22.16.16,0,0,1-.23,0,2.24,2.24,0,1,0,0,3.4A.16.16,0,0,1,115.75,132.6Z"/><path class="c" d="M118.63,133.28a.16.16,0,0,1-.16.16h-1.37a.16.16,0,1,1,0-.32h.52v-4.48h-.52a.16.16,0,1,1,0-.32h1.37a.16.16,0,1,1,0,.32h-.53v4.48h.53A.16.16,0,0,1,118.63,133.28Z"/><path class="c" d="M124.4,133.43a.17.17,0,0,1-.22-.08l-.48-1h-3.12l-.46,1a.17.17,0,0,1-.15.1.16.16,0,0,1-.14-.22l2.12-4.8a.17.17,0,0,1,.15-.1.16.16,0,0,1,.14.09l2.24,4.8A.16.16,0,0,1,124.4,133.43Zm-.85-1.44-1.45-3.11L120.73,132Z"/><path class="c" d="M132.68,131.41v1.28a.18.18,0,0,1-.05.13,2.6,2.6,0,0,1-1.67.62,2.56,2.56,0,1,1,1.67-4.51.17.17,0,0,1,0,.22.17.17,0,0,1-.23,0,2.24,2.24,0,1,0-1.45,3.94,2.25,2.25,0,0,0,1.4-.49v-1.21a.16.16,0,1,1,.32,0Z"/><path class="c" d="M138.41,133.43a.17.17,0,0,1-.22-.08l-.48-1h-3.12l-.46,1a.17.17,0,0,1-.15.1.16.16,0,0,1-.14-.22l2.12-4.8a.17.17,0,0,1,.15-.1.16.16,0,0,1,.14.09l2.24,4.8A.16.16,0,0,1,138.41,133.43Zm-.85-1.44-1.45-3.11L134.73,132Z"/><path class="c" d="M139.9,133.42a.16.16,0,0,1,0-.32h1.42a1,1,0,0,0,.24-2l-1-.23a1.32,1.32,0,0,1,.31-2.6H142a.16.16,0,0,1,0,.32h-1.1a1,1,0,0,0-.23,2l1,.23a1.32,1.32,0,0,1-.31,2.6Z"/><path class="c" d="M147.13,128.46a.16.16,0,0,1-.16.16h-1.54v4.63a.16.16,0,1,1-.32,0v-4.63h-1.54a.16.16,0,0,1,0-.32H147A.16.16,0,0,1,147.13,128.46Z"/><path class="c" d="M151.65,133.19a.16.16,0,0,1-.14.23.17.17,0,0,1-.14-.09L150.21,131h-1.45v2.24a.16.16,0,1,1-.32,0v-4.8a.17.17,0,0,1,.16-.16h1.7a1.36,1.36,0,0,1,.25,2.69Zm-1.31-2.49a1,1,0,0,0,0-2.07h-1.54v2.07Z"/><path class="c" d="M152.65,130.89a2.56,2.56,0,1,1,2.56,2.56A2.58,2.58,0,0,1,152.65,130.89Zm.32,0a2.24,2.24,0,1,0,2.24-2.23A2.25,2.25,0,0,0,153,130.89Z"/><path class="c" d="M162.55,133.38,159.37,129v4.3a.16.16,0,1,1-.32,0v-4.8a.16.16,0,0,1,.11-.15.17.17,0,0,1,.19.06l3.18,4.39v-4.3a.16.16,0,0,1,.16-.16.17.17,0,0,1,.16.16v4.8a.17.17,0,0,1-.16.16A.16.16,0,0,1,162.55,133.38Z"/><path class="c" d="M166.85,133.45a2.56,2.56,0,1,1,2.57-2.56A2.59,2.59,0,0,1,166.85,133.45Zm0-4.79a2.23,2.23,0,1,0,2.24,2.23A2.25,2.25,0,0,0,166.85,128.66Zm1-1.47a.11.11,0,0,0,.15,0,.1.1,0,0,0,0-.14l-.9-.49-.05,0-.05,0-.9.49a.11.11,0,1,0,.1.19l.85-.47Z"/><path class="c" d="M176.27,133.28v-4.23l-2.41,3.9a.15.15,0,0,1-.27,0l-2.41-3.9v4.23a.16.16,0,1,1-.32,0v-4.79a.16.16,0,0,1,.3-.09l2.58,4.17,2.58-4.17a.16.16,0,0,1,.3.09v4.79a.16.16,0,1,1-.32,0Z"/><path class="c" d="M179.75,133.28a.16.16,0,0,1-.16.16h-1.37a.16.16,0,1,1,0-.32h.52v-4.48h-.52a.16.16,0,1,1,0-.32h1.37a.16.16,0,1,1,0,.32h-.53v4.48h.53A.16.16,0,0,1,179.75,133.28Z"/><path class="c" d="M185,132.6a.17.17,0,0,1,0,.22,2.6,2.6,0,0,1-1.67.62,2.56,2.56,0,0,1,0-5.12,2.6,2.6,0,0,1,1.67.62.17.17,0,0,1,0,.22.16.16,0,0,1-.23,0,2.24,2.24,0,1,0,0,3.4A.16.16,0,0,1,185,132.6Z"/><path class="c" d="M190.63,133.43a.17.17,0,0,1-.22-.08l-.48-1H186.8l-.46,1a.17.17,0,0,1-.15.1.16.16,0,0,1-.14-.22l2.12-4.8a.17.17,0,0,1,.15-.1.16.16,0,0,1,.14.09l2.24,4.8A.16.16,0,0,1,190.63,133.43Zm-.85-1.44-1.45-3.11L186.95,132Z"/><path class="d" d="M106.71,32.54a5.86,5.86,0,0,0-9.82,0A10.11,10.11,0,0,0,95,38.6,10.69,10.69,0,0,0,95.93,43a7.46,7.46,0,0,0,.72,1.23l1,1.44.23.33a4.17,4.17,0,0,1,1,2.23c0,1-.47,20-.53,21h0a1,1,0,0,0,.45,1,5.3,5.3,0,0,0,5.83,0,1,1,0,0,0,.45-.95c-.05-.77-.5-20.08-.51-21a4.23,4.23,0,0,1,1-2.28l1.24-1.73a7.54,7.54,0,0,0,.72-1.23,10.69,10.69,0,0,0,.94-4.44A10.11,10.11,0,0,0,106.71,32.54Zm-4,15.74c0,.07.37,16.75.49,20.52a3.26,3.26,0,0,1-2.71,0c.13-3.8.51-20.46.51-20.52a5.84,5.84,0,0,0-1.41-3.4l-.23-.32-1-1.45a5.42,5.42,0,0,1-.53-.9A8.67,8.67,0,0,1,97,38.6c0-3.71,2.16-6.73,4.82-6.73s4.81,3,4.81,6.73a8.69,8.69,0,0,1-.76,3.61h0a5.38,5.38,0,0,1-.53.9l-1.25,1.74A5.9,5.9,0,0,0,102.66,48.28Z"/><path class="d" d="M112.26,38.88a.82.82,0,0,0-.82.82v.85a.82.82,0,0,0,1.65,0v-.85a.82.82,0,0,0-.82-.82Zm0,0"/><path class="d" d="M100.06,39.42a.82.82,0,0,0-1.64.14,7.07,7.07,0,0,0,.47,2,.82.82,0,1,0,1.53-.61,5.4,5.4,0,0,1-.36-1.55Zm0,0"/><path class="d" d="M102.36,33.4a4,4,0,0,0-3.47,2.81.82.82,0,1,0,1.53.61c.44-1.09,1.18-1.77,1.94-1.77a.82.82,0,0,0,0-1.65Zm0,0"/><path class="d" d="M114.5,63.73a10,10,0,0,1,2.07-3.09c.14-5.86.28-12.32.28-12.36a6.4,6.4,0,0,0-3.63-5.65c0-1.88,0-7.37,0-10.5h1.54v4.61a1,1,0,1,0,2,0V32.13h1.91v8.43a1,1,0,0,0,2,0V32.13h1.54c0,3.13,0,8.62,0,10.5a6.4,6.4,0,0,0-3.63,5.65s.11,5.25.24,10.56a13.83,13.83,0,0,1,2-1c-.11-4.7-.21-9.09-.21-9.52a4.41,4.41,0,0,1,2.92-4,1,1,0,0,0,.7-.89c0-.16,0-5.39,0-10.72V31.13a1,1,0,0,0-1-1h-11a1,1,0,0,0-1,1v1.51c0,5.34,0,10.56,0,10.72a1,1,0,0,0,.7.89,4.4,4.4,0,0,1,2.92,4C114.85,48.95,114.65,57.61,114.5,63.73Z"/><path class="d" d="M114.34,70a1,1,0,0,0,.13.33Z"/><path class="e" d="M135.1,66.76h-1.47c-1-3.82-4-6.8-7.3-7.28v-2h1.79a.61.61,0,0,0,.61-.6v-.71a.61.61,0,0,0-.61-.6h-5.44a.61.61,0,0,0-.61.6v.71a.61.61,0,0,0,.61.6h1.76v2c-3.33.48-6.3,3.47-7.31,7.28h-1.46a2.14,2.14,0,1,0,0,4.28H135.1a2.14,2.14,0,1,0,0-4.28Zm-9.72-5.62c2.75,0,5.43,2.35,6.46,5.62H118.93C120,63.49,122.64,61.14,125.38,61.14Zm9.72,8.17H115.67a.4.4,0,0,1,0-.81H135.1a.4.4,0,0,1,0,.81Z"/></svg>