<svg xmlns="http://www.w3.org/2000/svg" viewBox="0 0 129.48 121.24"><defs><style>.a{fill:#bd1622;}</style></defs><title>icone_editarperfil</title><path class="a" d="M115.84,49.4,108,48.08a44,44,0,0,0-3.13-7.56l4.59-6.42a6.84,6.84,0,0,0-.74-8.83l-6.91-6.91a6.81,6.81,0,0,0-4.85-2,6.73,6.73,0,0,0-4,1.28L86.6,22.2A43.51,43.51,0,0,0,78.76,19l-1.3-7.7a6.85,6.85,0,0,0-6.77-5.73H60.93a6.85,6.85,0,0,0-6.77,5.73l-1.34,7.88a42.86,42.86,0,0,0-7.54,3.18L38.9,17.75a6.85,6.85,0,0,0-8.83.74L23.13,25.4a6.86,6.86,0,0,0-.74,8.83L27,40.75a42.87,42.87,0,0,0-3.08,7.58l-7.7,1.3a6.85,6.85,0,0,0-5.73,6.77v9.76a6.85,6.85,0,0,0,5.73,6.77l7.88,1.35a42.94,42.94,0,0,0,3.18,7.54l-4.57,6.35A6.84,6.84,0,0,0,23.48,97l6.91,6.91a6.82,6.82,0,0,0,8.81.74L45.72,100A43.86,43.86,0,0,0,53,103l1.3,7.79a6.85,6.85,0,0,0,6.77,5.73H70.9a6.85,6.85,0,0,0,6.77-5.73L79,103a43.92,43.92,0,0,0,7.56-3.13L93,104.49a6.85,6.85,0,0,0,8.83-.74l6.91-6.91a6.86,6.86,0,0,0,.74-8.83l-4.59-6.45A43.55,43.55,0,0,0,108,74l7.79-1.3a6.85,6.85,0,0,0,5.73-6.77V56.17a6.77,6.77,0,0,0-5.68-6.77Zm-.53,16.53a.6.6,0,0,1-.51.6l-9.74,1.62a3.11,3.11,0,0,0-2.5,2.3,37.14,37.14,0,0,1-4,9.72,3.14,3.14,0,0,0,.14,3.41l5.73,8.07a.63.63,0,0,1-.07.79L97.4,99.35a.59.59,0,0,1-.44.18.57.57,0,0,1-.35-.12l-8-5.73a3.14,3.14,0,0,0-3.41-.14,37.13,37.13,0,0,1-9.72,4,3.08,3.08,0,0,0-2.3,2.5l-1.65,9.74a.6.6,0,0,1-.6.51H61.14a.6.6,0,0,1-.6-.51l-1.62-9.74a3.11,3.11,0,0,0-2.3-2.5,38.55,38.55,0,0,1-9.51-3.9,3.21,3.21,0,0,0-1.58-.42,3.05,3.05,0,0,0-1.81.58l-8.12,5.77a.68.68,0,0,1-.35.12.62.62,0,0,1-.44-.19l-6.91-6.91a.63.63,0,0,1-.07-.79l5.7-8a3.18,3.18,0,0,0,.14-3.43,36.73,36.73,0,0,1-4.08-9.69,3.18,3.18,0,0,0-2.5-2.29l-9.81-1.67a.6.6,0,0,1-.51-.6V56.4a.6.6,0,0,1,.51-.6L27,54.18a3.14,3.14,0,0,0,2.53-2.32,37.05,37.05,0,0,1,4-9.74,3.1,3.1,0,0,0-.16-3.39l-5.77-8.12a.63.63,0,0,1,.07-.79l6.91-6.91a.59.59,0,0,1,.44-.19.57.57,0,0,1,.35.12l8,5.7a3.17,3.17,0,0,0,3.43.14,36.78,36.78,0,0,1,9.69-4.08,3.18,3.18,0,0,0,2.29-2.5l1.67-9.81a.6.6,0,0,1,.6-.51h9.76a.6.6,0,0,1,.6.51L73,22a3.13,3.13,0,0,0,2.32,2.53,37.65,37.65,0,0,1,9.95,4.08,3.13,3.13,0,0,0,3.41-.14l8-5.75a.69.69,0,0,1,.35-.12.62.62,0,0,1,.44.19l6.91,6.91a.63.63,0,0,1,.07.79l-5.73,8a3.13,3.13,0,0,0-.14,3.41,37.13,37.13,0,0,1,4,9.72,3.08,3.08,0,0,0,2.5,2.29l9.74,1.65a.6.6,0,0,1,.51.6v9.76Zm0,0"/><path class="a" d="M66,37.09A24,24,0,1,0,90,61a24,24,0,0,0-24-24Zm0,41.64A17.69,17.69,0,1,1,83.72,61,17.7,17.7,0,0,1,66,78.73Zm0,0"/></svg>
