<svg id="Layer_1" data-name="Layer 1" xmlns="http://www.w3.org/2000/svg" viewBox="0 0 117.03 127.99"><defs><style>.cls-1{fill:red;}</style></defs><title>icone_logout</title><path class="cls-1" d="M67.11,103.43H20.69V26.05H67.11V39.59A1.93,1.93,0,0,0,69,41.53h3.87a1.93,1.93,0,0,0,1.93-1.93V26.05a7.74,7.74,0,0,0-7.74-7.74H20.69A7.74,7.74,0,0,0,13,26.05v77.38a7.74,7.74,0,0,0,7.74,7.74H67.11a7.74,7.74,0,0,0,7.74-7.74V89.89A1.93,1.93,0,0,0,72.92,88H69a1.93,1.93,0,0,0-1.93,1.93Z"/><path class="cls-1" d="M105.18,63.32,82,42a1.94,1.94,0,0,0-3.24,1.43v3.87a1.93,1.93,0,0,0,.64,1.44l13.45,12.1H38.1a1.93,1.93,0,0,0-1.93,1.93v3.87a1.93,1.93,0,0,0,1.93,1.93H92.81L79.36,80.71a1.93,1.93,0,0,0-.64,1.44V86a1.93,1.93,0,0,0,1.16,1.77,1.91,1.91,0,0,0,.78.16A1.94,1.94,0,0,0,82,87.45l23.21-21.28a1.94,1.94,0,0,0,0-2.85Z"/></svg>