<svg xmlns="http://www.w3.org/2000/svg" viewBox="0 0 100 127"><defs><style>.a{fill:#0a0;}</style></defs>
<path class="a" d="M43.41,91.43V83.89A6.69,6.69,0,0,1,39,77.6a2.23,2.23,0,0,1,4.46,0,2.22,2.22,0,0,0,4.44,0,2.23,2.23,0,1,1,4.46,0,6.69,6.69,0,0,1-4.45,6.3v7.53a2.23,2.23,0,1,1-4.46,0ZM25.18,33.56a8.32,8.32,0,0,1,8.31-8.31H57.8A8.31,8.31,0,0,1,60,41.56V55.7a2.25,2.25,0,0,1,0,.41l-2,10.9c-.7,3.73-3.26,6.15-6.52,6.15H39.86c-3.26,0-5.82-2.41-6.52-6.15l-2-10.9a2.24,2.24,0,0,1,0-.41V41.56a8.32,8.32,0,0,1-6.08-8ZM55.56,54H35.72v1.47l2,10.7c.08.42.55,2.51,2.13,2.51H51.43c1.58,0,2.05-2.09,2.13-2.51l2-10.7Zm0-12.15H35.72v7.69H55.56ZM29.65,33.56a3.85,3.85,0,0,0,3.84,3.84H57.8a3.84,3.84,0,0,0,0-7.69H33.49a3.85,3.85,0,0,0-3.84,3.84Zm35,62.29a2.23,2.23,0,0,0-2.23,2.23v14.06H28.84V98.08a2.23,2.23,0,1,0-4.46,0v16.29a2.23,2.23,0,0,0,2.23,2.23H64.68a2.23,2.23,0,0,0,2.23-2.23V98.08a2.23,2.23,0,0,0-2.23-2.23Zm11.6-8.14L60.66,75.82A2.23,2.23,0,0,0,58,79.37L72.69,90.59v23.78a2.23,2.23,0,1,0,4.46,0V89.49a2.23,2.23,0,0,0-.88-1.78ZM37.13,103.17a2.23,2.23,0,0,0-2.23,2.23v.42a2.23,2.23,0,1,0,4.46,0v-.42a2.23,2.23,0,0,0-2.23-2.23Zm2.23-8.51a2.23,2.23,0,0,0-4.46,0v.42a2.23,2.23,0,0,0,4.46,0Zm14.8,13.4a2.23,2.23,0,0,0,2.23-2.23v-.42a2.23,2.23,0,1,0-4.46,0v.42a2.23,2.23,0,0,0,2.23,2.23Zm2.23-13.4a2.23,2.23,0,0,0-4.46,0v.42a2.23,2.23,0,0,0,4.46,0ZM33.76,76.24a2.23,2.23,0,0,0-3.13-.42L15,87.71a2.23,2.23,0,0,0-.88,1.78v24.89a2.23,2.23,0,1,0,4.46,0V90.59L33.34,79.37a2.23,2.23,0,0,0,.42-3.13Zm0,0"/></svg>