<svg xmlns="http://www.w3.org/2000/svg" viewBox="20 0 110 110"><defs><style>.a{fill:#0A0;}.b,.c{fill:none;stroke:#090;}.b{stroke-linecap:round;stroke-miterlimit:10;stroke-width:2px;}.c{stroke-linejoin:round;stroke-width:3px;}</style></defs>
<polygon class="a" points="107.77 96.92 42.74 96.92 42.74 100.01 107.77 100.01 107.77 96.92 107.77 96.92"/><path class="b" d="M64.93,94.17h31L90,85.39l-5.24,7.87-5.24-7.87-5,7.51-5-7.51-5.24,7.87-5.25-7.87-5.84,8.79h11.7Zm0,0"/><path class="a" d="M66,37.24a9,9,0,0,0-.57-.79l-.29-.37-.14-.2,0,0,.11.12,0,0,0-.08a6.46,6.46,0,0,1-.82-1.07,4.15,4.15,0,0,1-.42-.87,9.52,9.52,0,0,1-.6-2.26A23,23,0,0,1,63,27c.19-2.88.44-5,.44-5a14.54,14.54,0,0,0-2.75,4.45,14.16,14.16,0,0,0-1.17,5.45A9.25,9.25,0,0,0,60,35.25a8.26,8.26,0,0,0,.81,1.83,10.12,10.12,0,0,0,.94,1.33l.82,1a6.93,6.93,0,0,1,.51,1,9.29,9.29,0,0,1,.65,2.23A22.7,22.7,0,0,1,64,47.26c-.2,2.88-.48,5-.48,5a14,14,0,0,0,2.77-4.43A14.57,14.57,0,0,0,67,45.33a11.43,11.43,0,0,0,.34-3,9.58,9.58,0,0,0-.56-3.39A11.67,11.67,0,0,0,66,37.24ZM65,35.83Zm0,0"/><path class="a" d="M75.11,27c-.16-.28-.37-.51-.56-.77l-.29-.39-.15-.19,0,0,.11.11,0,0-.06-.08c-.27-.34-.78-.84-.82-1.07a4.45,4.45,0,0,1-.42-.87,9.33,9.33,0,0,1-.6-2.26,25.13,25.13,0,0,1-.14-4.7c.18-2.88.43-5,.43-5a14.49,14.49,0,0,0-2.74,4.45,14.14,14.14,0,0,0-1.18,5.45A9.34,9.34,0,0,0,69.11,25a7.76,7.76,0,0,0,.82,1.83,8.86,8.86,0,0,0,.93,1.33l.82,1a7,7,0,0,1,.51,1,9.13,9.13,0,0,1,.65,2.23A22.52,22.52,0,0,1,73,37c-.19,2.88-.46,5-.46,5a14.33,14.33,0,0,0,2.76-4.45,12.8,12.8,0,0,0,.79-2.48,11.43,11.43,0,0,0,.36-3,10,10,0,0,0-.56-3.39A10.47,10.47,0,0,0,75.11,27Zm-1-1.4Zm0,0"/><path class="a" d="M87.12,38a11.11,11.11,0,0,0-.81-1.69,8.74,8.74,0,0,0-.56-.78l-.29-.38-.15-.19,0,0,.11.11,0,0-.06-.08c-.27-.34-.78-.84-.82-1.07a5,5,0,0,1-.42-.87,9.32,9.32,0,0,1-.6-2.26,25.14,25.14,0,0,1-.14-4.7c.19-2.88.45-5,.45-5A14.6,14.6,0,0,0,81,25.46a14.75,14.75,0,0,0-1.18,5.45,10.12,10.12,0,0,0,.48,3.38,8.54,8.54,0,0,0,.82,1.83,9.05,9.05,0,0,0,.93,1.33l.82,1a6.7,6.7,0,0,1,.51,1,8.21,8.21,0,0,1,.67,2.21,22.48,22.48,0,0,1,.17,4.67c-.19,2.88-.46,5-.46,5a14.07,14.07,0,0,0,2.76-4.45,13.57,13.57,0,0,0,.81-2.48,12.33,12.33,0,0,0,.34-3A10,10,0,0,0,87.12,38Zm-1.84-3.09Zm0,0"/><path class="c" d="M116.95,62.88c-1.7.6-4.11,3.22-4.66,3.84l0-.64a12.79,12.79,0,0,0-.59-2.55h.95V61.8h-76v1.74h1a12.58,12.58,0,0,0-.65,3.32c-.09-.11-2.85-3.3-4.76-4s-8.4,0-8.4,0v2.6s6.36-.22,7.72.59,2.84,7.5,4,7.5H37.9c.73,2.25,1.64,4.53,2,5.52H38.23v2.65H111V79.09H109.3c.42-1,1.33-3.28,2.06-5.52h2.29c1.13,0,2.62-6.71,4-7.5s7.72-.58,7.72-.58V62.88s-6.46-.68-8.4,0ZM42.11,69"/></svg>