<svg xmlns="http://www.w3.org/2000/svg" viewBox="0 0 135 110"><defs><style>.a{fill:#bd1622;}</style></defs><title>icone_acompanharpedido_tela_usuario</title><path class="a" d="M104.47,31.35a15.1,15.1,0,0,0-15.09-7h0A7,7,0,0,0,76.49,28V40.12h-9V28a7,7,0,0,0-12.89-3.64,15.1,15.1,0,0,0-15.09,7l-3,4.94A1.7,1.7,0,1,0,39.5,38l2.93-4.9a11.71,11.71,0,0,1,21.68,6.13h0V56a23.13,23.13,0,0,0-30.22-8.57l2.52-4.23a1.7,1.7,0,1,0-2.92-1.74c-3.61,6.06-9.3,15.15-10,16.65a23.14,23.14,0,1,0,44,10V63.56h9v4.52a23.14,23.14,0,1,0,43.92-10.2C119.71,56.46,104.85,32,104.47,31.35Zm-2.89,1.78c.2.33,4.45,7.46,8.54,14.31A23.13,23.13,0,0,0,79.89,56V39.26h0a11.71,11.71,0,0,1,21.68-6.13ZM79.89,28a3.56,3.56,0,0,1,5.93-2.66,15.18,15.18,0,0,0-5.93,4.42Zm-3.4,15.56V53.63h-9V43.52ZM58.18,25.3A3.56,3.56,0,0,1,64.11,28v1.77A15.18,15.18,0,0,0,58.18,25.3ZM44.36,87.82A19.74,19.74,0,1,1,64.11,68.08,19.77,19.77,0,0,1,44.36,87.82ZM67.51,60.16V57h9v3.13ZM99.64,87.82a19.75,19.75,0,1,1,19.75-19.75A19.77,19.77,0,0,1,99.64,87.82Z"/><path class="a" d="M114.54,62.72a1.7,1.7,0,1,0-3.2,1.15,12.45,12.45,0,1,1-2.6-4.26,1.7,1.7,0,0,0,2.49-2.32,15.78,15.78,0,1,0,3.31,5.43Z"/><path class="a" d="M44.36,52.24A15.83,15.83,0,1,0,60.19,68.08,15.85,15.85,0,0,0,44.36,52.24Zm0,28.26A12.43,12.43,0,1,1,56.79,68.08,12.45,12.45,0,0,1,44.36,80.51Z"/></svg>
