<svg xmlns="http://www.w3.org/2000/svg" viewBox="0 0 120 143"><defs><style>.cls-1{fill:red;}</style></defs><title>icone_user</title><path class="cls-1" d="M94.55,94.74A141.86,141.86,0,0,0,74.06,82.19a.76.76,0,0,1-.44-.69V73.19A18.53,18.53,0,0,0,76,66.67c.93-.07,2.13-1.37,3.44-6,1.78-6.32-.11-7.25-1.71-7.1a15.22,15.22,0,0,0,.69-2.6C81.18,34.6,73.11,34,73.11,34a12.37,12.37,0,0,0-4.86-4.52,16.38,16.38,0,0,0-10-2.11,14.72,14.72,0,0,0-4,.76,18.33,18.33,0,0,0-4.37,2.24,22.94,22.94,0,0,0-4.5,3.72,18.16,18.16,0,0,0-4.86,8.52,18.61,18.61,0,0,0,0,8.32,17.81,17.81,0,0,0,.69,2.6c-1.6-.15-3.52.78-1.71,7.1,1.31,4.63,2.53,5.92,3.44,6a19.61,19.61,0,0,0,2.4,6.59v8.23a.76.76,0,0,1-.44.69A140.23,140.23,0,0,0,24.52,94.74a18.5,18.5,0,0,0-7.41,14.84v2.24a4.8,4.8,0,0,0,4.79,4.79H97.13a4.8,4.8,0,0,0,4.79-4.79v-2.24a18.24,18.24,0,0,0-7.38-14.84Zm0,0"/></svg>