<svg id="Layer_1" data-name="Layer 1" xmlns="http://www.w3.org/2000/svg" viewBox="0 0 358 217.88"><defs><style>.cls-1,.cls-3{fill:#1d1d1b;}.cls-1{stroke:#1d1d1b;}.cls-1,.cls-2{stroke-miterlimit:10;}.cls-2,.cls-4{fill:#be1622;}.cls-2{stroke:#be1622;}</style></defs><title>menyoologo_oficial</title><path class="cls-1" d="M72,152.42V105.14L45,148.81a1.71,1.71,0,0,1-3,0L15,105.14v47.28a1.81,1.81,0,1,1-3.61,0V98.81a1.72,1.72,0,0,1,1.31-1.71,1.71,1.71,0,0,1,2,.7l28.81,46.68L72.3,97.81a1.82,1.82,0,0,1,3.31,1v53.61a1.81,1.81,0,1,1-3.61,0Z"/><path class="cls-1" d="M97.2,147.6a21.68,21.68,0,0,1,15.36-37,21.72,21.72,0,0,1,21,16.06,8.92,8.92,0,0,1-8.13,10.84H95.2a18.35,18.35,0,0,0,17.37,13,1.8,1.8,0,0,1,1.81,1.81,1.87,1.87,0,0,1-1.81,1.81A21.74,21.74,0,0,1,97.2,147.6Zm28.21-13.75a4.91,4.91,0,0,0,4.92-4.82,6.34,6.34,0,0,0-.2-1.51,18.14,18.14,0,0,0-35.64,4.72,8.62,8.62,0,0,0,.1,1.61Z"/><path class="cls-1" d="M191.27,132.74v12.35a1.81,1.81,0,0,1-3.61,0V132.74a18.27,18.27,0,0,0-36.54,0v12.35a1.81,1.81,0,1,1-3.61,0V112.67a1.81,1.81,0,1,1,3.61,0v7.93a22.09,22.09,0,0,1,2.81-3.41,22.06,22.06,0,0,1,30.92,0A22,22,0,0,1,191.27,132.74Z"/><path class="cls-1" d="M243.77,112.57a3,3,0,0,1-.2.9l-31,53.61a1.66,1.66,0,0,1-1.51.9,1.88,1.88,0,0,1-1.91-1.71,2.66,2.66,0,0,1,.3-1L219,148.71,199.7,113.37a1.82,1.82,0,0,1,3.21-1.71L221.08,145l19.27-33.33a1.82,1.82,0,0,1,3.41.9Z"/><path class="cls-2" d="M258,147.8a21.78,21.78,0,0,1,15.36-37.14,21.73,21.73,0,1,1,0,43.47A21.65,21.65,0,0,1,258,147.8Zm-2.71-15.36a18.12,18.12,0,1,0,18.07-18.17A18.12,18.12,0,0,0,255.32,132.44Z"/><path class="cls-2" d="M314.25,147.8a21.78,21.78,0,0,1,15.36-37.14,21.73,21.73,0,1,1,0,43.47A21.65,21.65,0,0,1,314.25,147.8Zm-2.71-15.36a18.12,18.12,0,1,0,18.07-18.17A18.12,18.12,0,0,0,311.54,132.44Z"/><path class="cls-3" d="M44.51,198.32a.29.29,0,0,1-.37-.14l-.83-1.79H37.93l-.79,1.79a.28.28,0,0,1-.26.17.28.28,0,0,1-.25-.39l3.64-8.26a.29.29,0,0,1,.26-.17.27.27,0,0,1,.25.15l3.86,8.26A.28.28,0,0,1,44.51,198.32ZM43,195.83l-2.5-5.36-2.36,5.36Z"/><path class="cls-3" d="M61,198.06v-7.27l-4.15,6.72a.26.26,0,0,1-.46,0l-4.15-6.72v7.27a.28.28,0,1,1-.56,0v-8.25a.28.28,0,0,1,.51-.15l4.43,7.18,4.43-7.18a.28.28,0,0,1,.51.15v8.25a.28.28,0,0,1-.56,0Z"/><path class="cls-3" d="M69.15,198a.28.28,0,0,1-.28.28h-4.6A.28.28,0,0,1,64,198v-8.26a.28.28,0,0,1,.28-.28h4.6a.28.28,0,0,1,0,.56H64.55v3.57h2.93a.29.29,0,0,1,.28.28.28.28,0,0,1-.28.28H64.55v3.58h4.32A.28.28,0,0,1,69.15,198Z"/><path class="cls-3" d="M71.7,198.32a.28.28,0,0,1-.28-.28v-8.26a.28.28,0,0,1,.28-.28.29.29,0,0,1,.28.28v8h4.15a.28.28,0,1,1,0,.56Z"/><path class="cls-3" d="M85.3,189.76V198a.28.28,0,1,1-.56,0v-3.86H79.18V198a.28.28,0,0,1-.56,0v-8.26a.28.28,0,0,1,.56,0v3.85h5.56v-3.85a.28.28,0,1,1,.56,0Z"/><path class="cls-3" d="M87.46,193.95a4.41,4.41,0,1,1,4.4,4.4A4.44,4.44,0,0,1,87.46,193.95Zm.56,0a3.85,3.85,0,1,0,3.85-3.84A3.88,3.88,0,0,0,88,193.95Z"/><path class="cls-3" d="M104,197.9a.28.28,0,0,1-.25.4.29.29,0,0,1-.25-.15l-2-4H99.07V198a.28.28,0,1,1-.56,0v-8.26a.29.29,0,0,1,.28-.28h2.93a2.34,2.34,0,0,1,.43,4.63Zm-2.25-4.29a1.78,1.78,0,0,0,0-3.57H99.07v3.57Z"/><path class="cls-3" d="M116,198a.28.28,0,0,1-.28.28h-4.6a.28.28,0,0,1-.28-.28v-8.26a.28.28,0,0,1,.28-.28h4.6a.28.28,0,0,1,0,.56H111.4v3.57h2.93a.29.29,0,0,1,.28.28.28.28,0,0,1-.28.28H111.4v3.58h4.32A.28.28,0,0,1,116,198Z"/><path class="cls-3" d="M126.23,197.86a.28.28,0,0,1-.2.46.25.25,0,0,1-.2-.09l-3.61-3.91-3.6,3.91a.3.3,0,0,1-.22.09.28.28,0,0,1-.2-.46l3.64-4L118.2,190a.27.27,0,0,1,0-.39.28.28,0,0,1,.4,0l3.6,3.91,3.61-3.91a.26.26,0,0,1,.39,0,.27.27,0,0,1,0,.39l-3.63,3.94Z"/><path class="cls-3" d="M128.46,198v-8.26a.29.29,0,0,1,.28-.28h2.93a2.34,2.34,0,0,1,0,4.68H129V198a.28.28,0,1,1-.56,0Zm.56-4.42h2.66a1.78,1.78,0,0,0,0-3.57H129Z"/><path class="cls-3" d="M141.08,198a.28.28,0,0,1-.28.28h-4.6a.28.28,0,0,1-.28-.28v-8.26a.28.28,0,0,1,.28-.28h4.6a.28.28,0,0,1,0,.56h-4.32v3.57h2.93a.29.29,0,0,1,.28.28.28.28,0,0,1-.28.28h-2.93v3.58h4.32A.28.28,0,0,1,141.08,198Z"/><path class="cls-3" d="M148.92,197.9a.28.28,0,0,1-.25.4.29.29,0,0,1-.25-.15l-2-4H144V198a.28.28,0,1,1-.56,0v-8.26a.29.29,0,0,1,.28-.28h2.93a2.34,2.34,0,0,1,.43,4.63Zm-2.25-4.29a1.78,1.78,0,0,0,0-3.57H144v3.57Z"/><path class="cls-3" d="M154,198.06a.28.28,0,0,1-.28.28h-2.36a.28.28,0,1,1,0-.56h.9v-7.71h-.9a.28.28,0,1,1,0-.56h2.36a.28.28,0,1,1,0,.56h-.91v7.71h.91A.28.28,0,0,1,154,198.06Z"/><path class="cls-3" d="M161.34,198a.28.28,0,0,1-.28.28h-4.6a.28.28,0,0,1-.28-.28v-8.26a.28.28,0,0,1,.28-.28h4.6a.28.28,0,0,1,0,.56h-4.32v3.57h2.93a.29.29,0,0,1,.28.28.28.28,0,0,1-.28.28h-2.93v3.58h4.32A.28.28,0,0,1,161.34,198Zm-2.47-11.26-1.47.8a.18.18,0,1,1-.17-.32l1.54-.85a.22.22,0,0,1,.09,0,.22.22,0,0,1,.09,0l1.54.85a.18.18,0,0,1,.08.25.2.2,0,0,1-.26.08Z"/><path class="cls-3" d="M169.63,198.23l-5.47-7.55v7.4a.28.28,0,1,1-.56,0v-8.26a.27.27,0,0,1,.19-.26.29.29,0,0,1,.32.11l5.47,7.55v-7.4a.28.28,0,0,1,.28-.28.29.29,0,0,1,.28.28v8.26a.29.29,0,0,1-.28.28A.27.27,0,0,1,169.63,198.23Z"/><path class="cls-3" d="M179.79,196.88a.29.29,0,0,1,0,.39,4.47,4.47,0,0,1-2.87,1.07,4.41,4.41,0,0,1,0-8.82,4.47,4.47,0,0,1,2.87,1.07.29.29,0,0,1,0,.39.28.28,0,0,1-.4,0,3.85,3.85,0,1,0,0,5.85A.28.28,0,0,1,179.79,196.88Z"/><path class="cls-3" d="M184.73,198.06a.28.28,0,0,1-.28.28h-2.36a.28.28,0,1,1,0-.56h.9v-7.71h-.9a.28.28,0,1,1,0-.56h2.36a.28.28,0,1,1,0,.56h-.91v7.71h.91A.28.28,0,0,1,184.73,198.06Z"/><path class="cls-3" d="M194.67,198.32a.29.29,0,0,1-.37-.14l-.83-1.79h-5.37l-.79,1.79a.28.28,0,0,1-.26.17.28.28,0,0,1-.25-.39l3.64-8.26a.29.29,0,0,1,.26-.17.27.27,0,0,1,.25.15l3.86,8.26A.28.28,0,0,1,194.67,198.32Zm-1.47-2.49-2.5-5.36-2.36,5.36Z"/><path class="cls-3" d="M208.91,194.84v2.21a.31.31,0,0,1-.09.22,4.47,4.47,0,0,1-2.87,1.07,4.41,4.41,0,1,1,2.87-7.75.29.29,0,0,1,0,.39.29.29,0,0,1-.4,0,3.85,3.85,0,1,0-2.5,6.78,3.88,3.88,0,0,0,2.41-.85v-2.08a.28.28,0,1,1,.56,0Z"/><path class="cls-3" d="M218.77,198.32a.29.29,0,0,1-.37-.14l-.83-1.79H212.2l-.79,1.79a.28.28,0,0,1-.26.17.28.28,0,0,1-.25-.39l3.64-8.26a.29.29,0,0,1,.26-.17.27.27,0,0,1,.25.15l3.86,8.26A.28.28,0,0,1,218.77,198.32Zm-1.47-2.49-2.5-5.36-2.36,5.36Z"/><path class="cls-3" d="M221.33,198.3a.28.28,0,0,1,0-.56h2.44a1.72,1.72,0,0,0,.42-3.38l-1.7-.4a2.27,2.27,0,0,1,.54-4.48h1.9a.28.28,0,0,1,0,.56H223a1.71,1.71,0,0,0-.4,3.38l1.68.4a2.27,2.27,0,0,1-.54,4.48Z"/><path class="cls-3" d="M233.78,189.76a.28.28,0,0,1-.28.28h-2.66v8a.28.28,0,1,1-.56,0v-8h-2.66a.28.28,0,0,1,0-.56h5.87A.28.28,0,0,1,233.78,189.76Z"/><path class="cls-3" d="M241.55,197.9a.28.28,0,0,1-.25.4.29.29,0,0,1-.25-.15l-2-4h-2.49V198a.28.28,0,1,1-.56,0v-8.26a.29.29,0,0,1,.28-.28h2.93a2.34,2.34,0,0,1,.43,4.63Zm-2.25-4.29a1.78,1.78,0,0,0,0-3.57h-2.66v3.57Z"/><path class="cls-3" d="M243.27,193.95a4.41,4.41,0,1,1,4.4,4.4A4.44,4.44,0,0,1,243.27,193.95Zm.56,0a3.85,3.85,0,1,0,3.85-3.84A3.88,3.88,0,0,0,243.83,193.95Z"/><path class="cls-3" d="M260.3,198.23l-5.47-7.55v7.4a.28.28,0,1,1-.56,0v-8.26a.27.27,0,0,1,.19-.26.29.29,0,0,1,.32.11l5.47,7.55v-7.4a.28.28,0,0,1,.28-.28.29.29,0,0,1,.28.28v8.26a.29.29,0,0,1-.28.28A.27.27,0,0,1,260.3,198.23Z"/><path class="cls-3" d="M267.7,198.35a4.4,4.4,0,1,1,4.42-4.4A4.45,4.45,0,0,1,267.7,198.35Zm0-8.25a3.85,3.85,0,1,0,3.86,3.84A3.88,3.88,0,0,0,267.7,190.1Zm1.65-2.53a.2.2,0,0,0,.26-.08.18.18,0,0,0-.08-.25L268,186.4a.22.22,0,0,0-.09,0,.22.22,0,0,0-.09,0l-1.54.85a.18.18,0,1,0,.17.32l1.47-.8Z"/><path class="cls-3" d="M283.91,198.06v-7.27l-4.15,6.72a.26.26,0,0,1-.46,0l-4.15-6.72v7.27a.28.28,0,1,1-.56,0v-8.25a.28.28,0,0,1,.51-.15l4.43,7.18,4.43-7.18a.28.28,0,0,1,.51.15v8.25a.28.28,0,1,1-.56,0Z"/><path class="cls-3" d="M289.9,198.06a.28.28,0,0,1-.28.28h-2.36a.28.28,0,1,1,0-.56h.9v-7.71h-.9a.28.28,0,1,1,0-.56h2.36a.28.28,0,1,1,0,.56h-.91v7.71h.91A.28.28,0,0,1,289.9,198.06Z"/><path class="cls-3" d="M298.87,196.88a.29.29,0,0,1,0,.39,4.47,4.47,0,0,1-2.87,1.07,4.41,4.41,0,0,1,0-8.82,4.47,4.47,0,0,1,2.87,1.07.29.29,0,0,1,0,.39.28.28,0,0,1-.4,0,3.85,3.85,0,1,0,0,5.85A.28.28,0,0,1,298.87,196.88Z"/><path class="cls-3" d="M308.61,198.32a.29.29,0,0,1-.37-.14l-.83-1.79H302l-.79,1.79a.28.28,0,0,1-.26.17.28.28,0,0,1-.25-.39l3.64-8.26a.29.29,0,0,1,.26-.17.28.28,0,0,1,.25.15l3.86,8.26A.28.28,0,0,1,308.61,198.32Zm-1.47-2.49-2.5-5.36-2.36,5.36Z"/><path class="cls-4" d="M164.22,24.72a10.08,10.08,0,0,0-16.89,0,17.4,17.4,0,0,0-3.27,10.43,18.39,18.39,0,0,0,1.62,7.65,12.83,12.83,0,0,0,1.24,2.11l1.79,2.48.4.57c.87,1.22,1.78,2.48,1.78,3.84,0,1.74-.8,34.41-.91,36.09h0v0a1.73,1.73,0,0,0,.78,1.64,9.11,9.11,0,0,0,10,0,1.7,1.7,0,0,0,.78-1.63c-.09-1.32-.87-34.55-.87-36.12,0-1.4.91-2.68,1.79-3.92l2.14-3a13,13,0,0,0,1.24-2.11,18.39,18.39,0,0,0,1.62-7.65A17.39,17.39,0,0,0,164.22,24.72Zm-7,27.09c0,.12.63,28.82.85,35.31a5.61,5.61,0,0,1-4.67,0c.23-6.53.88-35.2.88-35.31,0-2.46-1.34-4.34-2.42-5.85l-.4-.55-1.79-2.49a9.32,9.32,0,0,1-.91-1.54,14.92,14.92,0,0,1-1.31-6.21c0-6.38,3.72-11.58,8.29-11.58s8.28,5.19,8.28,11.58a14.94,14.94,0,0,1-1.31,6.21h0a9.27,9.27,0,0,1-.91,1.54l-2.14,3C158.61,47.42,157.27,49.32,157.27,51.81Z"/><path class="cls-4" d="M179.78,35.64a1.42,1.42,0,0,0-1.42,1.42v1.46a1.42,1.42,0,0,0,2.83,0V37.06a1.42,1.42,0,0,0-1.42-1.42Zm0,0"/><path class="cls-4" d="M151.83,35.91a1.42,1.42,0,0,0-2.82.24,12.16,12.16,0,0,0,.8,3.47,1.42,1.42,0,1,0,2.63-1,9.3,9.3,0,0,1-.61-2.66Zm0,0"/><path class="cls-4" d="M155.78,25.56c-2.49,0-4.78,1.85-6,4.84a1.42,1.42,0,1,0,2.63,1c.75-1.88,2-3.05,3.34-3.05a1.42,1.42,0,0,0,0-2.83Zm0,0"/><path class="cls-4" d="M177.63,78.39a17.26,17.26,0,0,1,3.56-5.32c.24-10.08.48-21.19.48-21.26a11,11,0,0,0-6.24-9.72c0-3.24,0-12.69,0-18.07h2.66v7.92a1.72,1.72,0,1,0,3.43,0V24h3.28v14.5a1.72,1.72,0,0,0,3.44,0V24h2.66c0,5.38,0,14.83,0,18.07a11,11,0,0,0-6.24,9.72c0,.06.2,9,.41,18.16a23.78,23.78,0,0,1,3.39-1.79c-.19-8.09-.36-15.65-.36-16.38a7.58,7.58,0,0,1,5-6.92,1.72,1.72,0,0,0,1.2-1.54c0-.28,0-9.27,0-18.45V22.3a1.72,1.72,0,0,0-1.72-1.72h-18.9A1.72,1.72,0,0,0,172,22.3v2.6c0,9.18,0,18.17,0,18.45a1.72,1.72,0,0,0,1.2,1.54,7.58,7.58,0,0,1,5,6.92C178.23,53,177.89,67.87,177.63,78.39Z"/><path class="cls-4" d="M177.36,89.2a1.73,1.73,0,0,0,.22.57C177.5,89.58,177.43,89.39,177.36,89.2Z"/><path class="cls-3" d="M213.08,83.61h-2.52C208.82,77,203.72,71.91,198,71.08V67.63h3.09a1,1,0,0,0,1-1V65.36a1,1,0,0,0-1-1h-9.36a1,1,0,0,0-1,1v1.23a1,1,0,0,0,1,1h3v3.45c-5.73.83-10.84,6-12.57,12.53h-2.52a3.68,3.68,0,1,0,0,7.36h33.44a3.68,3.68,0,1,0,0-7.36Zm-16.72-9.68c4.73,0,9.34,4,11.11,9.67H185.25C187,78,191.63,73.93,196.36,73.93ZM213.08,88H179.64a.7.7,0,0,1,0-1.39h33.44a.7.7,0,0,1,0,1.39Z"/></svg>