<svg xmlns="http://www.w3.org/2000/svg" viewBox="951 536 54 50"><defs><style>.a{fill:#6d6d6d;}.b{fill:#fff;}</style></defs><g transform="translate(896 240)"><rect class="a" width="54" height="50" transform="translate(55 296)"/><g transform="translate(72.772 313.3)"><path class="b" d="M1.854,4.686c.248.166.977.679,2.219,1.54C5.3,7.087,6.242,7.732,6.9,8.2c.066.05.232.166.464.331s.431.3.58.414c.149.1.348.215.563.348a3.427,3.427,0,0,0,.613.3,1.74,1.74,0,0,0,.546.1h.017a1.74,1.74,0,0,0,.546-.1,2.96,2.96,0,0,0,.613-.3c.215-.132.414-.248.563-.348s.348-.248.58-.414.381-.281.464-.331c.662-.464,2.351-1.623,5.05-3.51A4.974,4.974,0,0,0,18.81,3.361a2.87,2.87,0,0,0,.53-1.623A1.651,1.651,0,0,0,18.826.513,1.707,1.707,0,0,0,17.617,0H1.722A1.525,1.525,0,0,0,.447.563,2.171,2.171,0,0,0,0,1.97,2.533,2.533,0,0,0,.6,3.444,5.235,5.235,0,0,0,1.854,4.686Zm0,0" transform="translate(0)"/><path class="b" d="M18.263,30.46c-2.368,1.59-4.156,2.831-5.381,3.709-.414.3-.745.546-.993.712a5.345,5.345,0,0,1-1.027.513,3.06,3.06,0,0,1-1.192.265H9.653a3.06,3.06,0,0,1-1.192-.265,5.663,5.663,0,0,1-1.01-.513c-.248-.166-.6-.4-.993-.712Q4.992,33.1,1.093,30.444A5.47,5.47,0,0,1,0,29.5v8.577A1.651,1.651,0,0,0,.513,39.3a1.689,1.689,0,0,0,1.225.513H17.617a1.651,1.651,0,0,0,1.225-.513,1.688,1.688,0,0,0,.513-1.225v-8.56a6.686,6.686,0,0,1-1.093.944Zm0,0" transform="translate(0 -24.615)"/></g></g></svg>