<svg xmlns="http://www.w3.org/2000/svg" viewBox="0 0 47.4 45.42"><defs><style>.a{fill:#3065a1;}.b{fill:#fff;}</style></defs><title>Untitled-2</title><rect class="a" width="47.4" height="45.42"/><path class="b" d="M28.79,11.85H25.88c-3.27,0-5.38,2.17-5.38,5.52v2.55H17.56a.46.46,0,0,0-.46.46v3.69a.46.46,0,0,0,.46.46h2.93v9.31a.46.46,0,0,0,.46.46h3.82a.46.46,0,0,0,.46-.46V24.53h3.42a.46.46,0,0,0,.46-.46V20.38a.46.46,0,0,0-.13-.32.46.46,0,0,0-.32-.13H25.23V17.76c0-1,.25-1.56,1.6-1.56h2a.46.46,0,0,0,.46-.46V12.31a.46.46,0,0,0-.46-.46Zm0,0"/></svg>