<svg xmlns="http://www.w3.org/2000/svg" viewBox="0 0 47.4 45.42"><defs><style>.a{fill:#e52520;}.b{fill:#fff;}</style></defs><title>Untitled-2</title><rect class="a" width="47.4" height="45.42"/><path class="b" d="M20,24.33h3.83a4.87,4.87,0,1,1-1.32-5.22.53.53,0,0,0,.72,0l1.41-1.32a.53.53,0,0,0,0-.76,7.81,7.81,0,0,0-5.23-2.15,7.84,7.84,0,1,0,7.67,8.28c0-.05,0-1.8,0-1.8H20a.53.53,0,0,0-.53.53V23.8A.53.53,0,0,0,20,24.33Z"/><path class="b" d="M33.61,21.53V19.65a.46.46,0,0,0-.46-.46H31.57a.46.46,0,0,0-.46.46v1.88H29.23a.46.46,0,0,0-.46.46v1.58a.46.46,0,0,0,.46.46h1.88v1.88a.46.46,0,0,0,.46.46h1.58a.46.46,0,0,0,.46-.46V24h1.88a.46.46,0,0,0,.46-.46V22a.46.46,0,0,0-.46-.46Z"/></svg>