<svg xmlns="http://www.w3.org/2000/svg" viewBox="0 0 47.4 45.42"><defs><style>.a{fill:#6e6e6e;}.b{fill:#fff;}</style></defs><title>Untitled-2</title><rect class="a" width="47.4" height="45.42"/><path class="b" d="M17.17,20.28,19,21.56l2.36,1.65.38.28.49.34.47.29a2.72,2.72,0,0,0,.52.24,1.44,1.44,0,0,0,.45.08h0a1.44,1.44,0,0,0,.45-.08,2.76,2.76,0,0,0,.52-.24l.47-.29.49-.34.38-.28,4.22-2.93a4.28,4.28,0,0,0,1.1-1.11,2.38,2.38,0,0,0,.44-1.36,1.46,1.46,0,0,0-1.44-1.44H17.06a1.29,1.29,0,0,0-1.07.47A1.82,1.82,0,0,0,15.62,18a2.11,2.11,0,0,0,.5,1.23,4.47,4.47,0,0,0,1.05,1Zm0,0"/><path class="b" d="M30.88,21.24q-3,2-4.49,3.11-.51.38-.83.59a5.08,5.08,0,0,1-.85.43,2.59,2.59,0,0,1-1,.22h0a2.59,2.59,0,0,1-1-.22,5.11,5.11,0,0,1-.85-.43q-.32-.21-.83-.59-1.22-.89-4.48-3.11a4.78,4.78,0,0,1-.91-.78v7.16a1.45,1.45,0,0,0,1.44,1.44H30.34a1.45,1.45,0,0,0,1.44-1.44V20.46a5,5,0,0,1-.9.78Zm0,0"/></svg>