<svg xmlns="http://www.w3.org/2000/svg" id="Layer_1" data-name="Layer 1" viewBox="0 0 372 149"><defs><style>.cls-1{fill:#fff;}</style></defs><title>tela_login_logomenyoobranca</title><path class="cls-1" d="M83.76,26.1a2.22,2.22,0,0,0-2.58.92L52.79,73,24.4,27a2.32,2.32,0,0,0-4.23,1.28V81.9a2.31,2.31,0,1,0,4.61,0V36.37L50.84,78.51a2.16,2.16,0,0,0,2,1.18,2.14,2.14,0,0,0,1.93-1.14L80.81,36.37V81.9a2.31,2.31,0,1,0,4.61,0V28.29A2.21,2.21,0,0,0,83.76,26.1Z"/><path class="cls-1" d="M121.87,39.53a22.23,22.23,0,0,0,0,44.47,2.37,2.37,0,0,0,2.31-2.31,2.31,2.31,0,0,0-2.31-2.31,17.91,17.91,0,0,1-16.67-12h29.52a8.79,8.79,0,0,0,8.83-8.93,8.6,8.6,0,0,0-.22-2.54A22.2,22.2,0,0,0,121.87,39.53Zm0,4.61a17.67,17.67,0,0,1,17.09,13,5.85,5.85,0,0,1,.18,1.37,4.43,4.43,0,0,1-4.42,4.32H104.33c0-.37,0-.77,0-1.11A17.59,17.59,0,0,1,121.87,44.15Z"/><path class="cls-1" d="M178.68,39.84a22.18,22.18,0,0,0-15.81,6.47,23.24,23.24,0,0,0-2,2.22V42.14a2.31,2.31,0,1,0-4.61,0V74.57a2.31,2.31,0,1,0,4.61,0V62.22a17.77,17.77,0,1,1,35.54,0V74.57a2.31,2.31,0,0,0,4.61,0V62.22a22.26,22.26,0,0,0-22.38-22.38Z"/><path class="cls-1" d="M252.4,40a2.35,2.35,0,0,0-1.77-.22,2.3,2.3,0,0,0-1.4,1.11L230.4,73.45,212.65,40.9a2.31,2.31,0,0,0-1.41-1.12,2.36,2.36,0,0,0-1.8.23,2.3,2.3,0,0,0-.88,3.07L227.7,78.18l-9.38,16.29a3.08,3.08,0,0,0-.39,1.28A2.37,2.37,0,0,0,220.35,98a2.15,2.15,0,0,0,1.94-1.15l31-53.61,0-.1a3.34,3.34,0,0,0,.22-1.05A2.32,2.32,0,0,0,252.4,40Z"/><path class="cls-1" d="M298.41,46.21a21.76,21.76,0,0,0-15.72-6.58A22.11,22.11,0,0,0,267,46.21a22.31,22.31,0,0,0,0,31.42,22.05,22.05,0,0,0,15.71,6.47,21.72,21.72,0,0,0,15.71-6.47,22.07,22.07,0,0,0,0-31.42ZM282.69,79.49a17.62,17.62,0,1,1,17.67-17.57A17.59,17.59,0,0,1,282.69,79.49Z"/><path class="cls-1" d="M354.62,46.21a21.77,21.77,0,0,0-15.72-6.57,22.11,22.11,0,0,0-15.72,6.58,22.31,22.31,0,0,0,0,31.42,22.05,22.05,0,0,0,15.71,6.47,21.72,21.72,0,0,0,15.71-6.47,22.07,22.07,0,0,0,0-31.42ZM338.91,79.49a17.62,17.62,0,1,1,17.67-17.57A17.59,17.59,0,0,1,338.91,79.49Z"/><path class="cls-1" d="M50.09,119.16a.27.27,0,0,0-.25-.15.29.29,0,0,0-.26.17l-3.64,8.26a.28.28,0,0,0,.25.39.28.28,0,0,0,.26-.17l.79-1.79h5.37l.83,1.79a.29.29,0,0,0,.37.14.28.28,0,0,0,.14-.37Zm-2.61,6.15L49.84,120l2.5,5.36Z"/><path class="cls-1" d="M70.7,119a.26.26,0,0,0-.31.11L66,126.31l-4.43-7.18a.28.28,0,0,0-.51.15v8.25a.28.28,0,1,0,.56,0v-7.27L65.73,127a.26.26,0,0,0,.46,0l4.15-6.72v7.27a.28.28,0,0,0,.56,0v-8.25A.26.26,0,0,0,70.7,119Z"/><path class="cls-1" d="M78.17,119.52a.28.28,0,0,0,0-.56h-4.6a.28.28,0,0,0-.28.28v8.26a.28.28,0,0,0,.28.28h4.6a.28.28,0,0,0,0-.56H73.85v-3.58h2.93a.28.28,0,0,0,.28-.28.29.29,0,0,0-.28-.28H73.85v-3.57Z"/><path class="cls-1" d="M85.43,127.24H81.28v-8A.29.29,0,0,0,81,119a.28.28,0,0,0-.28.28v8.26a.28.28,0,0,0,.28.28h4.43a.28.28,0,1,0,0-.56Z"/><path class="cls-1" d="M94.32,119a.28.28,0,0,0-.28.28v3.85H88.49v-3.85a.28.28,0,0,0-.56,0v8.26a.28.28,0,0,0,.56,0v-3.86H94v3.86a.28.28,0,1,0,.56,0v-8.26A.28.28,0,0,0,94.32,119Z"/><path class="cls-1" d="M101.16,119a4.4,4.4,0,1,0,4.42,4.4A4.44,4.44,0,0,0,101.16,119Zm0,8.25a3.85,3.85,0,1,1,3.86-3.85A3.88,3.88,0,0,1,101.16,127.27Z"/><path class="cls-1" d="M113.36,121.31A2.34,2.34,0,0,0,111,119h-2.93a.29.29,0,0,0-.28.28v8.26a.28.28,0,1,0,.56,0v-3.86h2.49l2,4a.29.29,0,0,0,.25.15.28.28,0,0,0,.25-.4l-1.87-3.78A2.32,2.32,0,0,0,113.36,121.31Zm-2.29,1.78h-2.7v-3.57H111a1.78,1.78,0,0,1,0,3.57Z"/><path class="cls-1" d="M125,119.52a.28.28,0,0,0,0-.56h-4.6a.28.28,0,0,0-.28.28v8.26a.28.28,0,0,0,.28.28H125a.28.28,0,0,0,0-.56h-4.32v-3.58h2.93a.28.28,0,0,0,.28-.28.29.29,0,0,0-.28-.28h-2.93v-3.57Z"/><path class="cls-1" d="M135.52,119.06a.26.26,0,0,0-.39,0L131.52,123l-3.6-3.91a.28.28,0,0,0-.4,0,.27.27,0,0,0,0,.39l3.64,3.94-3.64,4a.28.28,0,0,0,.2.46.3.3,0,0,0,.22-.09l3.6-3.91,3.61,3.91a.25.25,0,0,0,.2.09.28.28,0,0,0,.2-.46l-3.63-4,3.63-3.94A.27.27,0,0,0,135.52,119.06Z"/><path class="cls-1" d="M141,119H138a.29.29,0,0,0-.28.28v8.26a.28.28,0,1,0,.56,0v-3.86H141a2.34,2.34,0,0,0,0-4.68Zm0,4.12h-2.66v-3.57H141a1.78,1.78,0,0,1,0,3.57Z"/><path class="cls-1" d="M150.11,119.52a.28.28,0,0,0,0-.56h-4.6a.28.28,0,0,0-.28.28v8.26a.28.28,0,0,0,.28.28h4.6a.28.28,0,0,0,0-.56h-4.32v-3.58h2.93a.28.28,0,0,0,.28-.28.29.29,0,0,0-.28-.28h-2.93v-3.57Z"/><path class="cls-1" d="M158.26,121.31a2.34,2.34,0,0,0-2.33-2.35H153a.29.29,0,0,0-.28.28v8.26a.28.28,0,1,0,.56,0v-3.86h2.49l2,4a.29.29,0,0,0,.25.15.28.28,0,0,0,.25-.4l-1.87-3.78A2.32,2.32,0,0,0,158.26,121.31ZM156,123.09h-2.7v-3.57h2.66a1.78,1.78,0,0,1,0,3.57Z"/><path class="cls-1" d="M163,119.55a.28.28,0,1,0,0-.56h-2.36a.28.28,0,1,0,0,.56h.9v7.71h-.9a.28.28,0,1,0,0,.56H163a.28.28,0,1,0,0-.56h-.91v-7.71Z"/><path class="cls-1" d="M166.7,117l1.47-.8,1.45.8a.2.2,0,0,0,.26-.08.18.18,0,0,0-.08-.25l-1.54-.85a.22.22,0,0,0-.09,0,.22.22,0,0,0-.09,0l-1.54.85a.18.18,0,1,0,.17.32Z"/><path class="cls-1" d="M170.36,119.52a.28.28,0,0,0,0-.56h-4.6a.28.28,0,0,0-.28.28v8.26a.28.28,0,0,0,.28.28h4.6a.28.28,0,0,0,0-.56H166v-3.58H169a.28.28,0,0,0,.28-.28.29.29,0,0,0-.28-.28H166v-3.57Z"/><path class="cls-1" d="M179.16,119a.28.28,0,0,0-.28.28v7.4l-5.47-7.55a.29.29,0,0,0-.32-.11.27.27,0,0,0-.19.26v8.26a.28.28,0,1,0,.56,0v-7.4l5.47,7.55a.27.27,0,0,0,.23.12.29.29,0,0,0,.28-.28v-8.26A.29.29,0,0,0,179.16,119Z"/><path class="cls-1" d="M186.19,119.55a3.83,3.83,0,0,1,2.5.93.28.28,0,0,0,.4,0,.29.29,0,0,0,0-.39,4.47,4.47,0,0,0-2.87-1.07,4.41,4.41,0,0,0,0,8.82,4.47,4.47,0,0,0,2.87-1.07.29.29,0,0,0,0-.39.28.28,0,0,0-.4,0,3.85,3.85,0,1,1-2.5-6.78Z"/><path class="cls-1" d="M193.75,119.55a.28.28,0,1,0,0-.56h-2.36a.28.28,0,1,0,0,.56h.9v7.71h-.9a.28.28,0,1,0,0,.56h2.36a.28.28,0,1,0,0-.56h-.91v-7.71Z"/><path class="cls-1" d="M200.25,119.16A.28.28,0,0,0,200,119a.29.29,0,0,0-.26.17l-3.64,8.26a.28.28,0,0,0,.25.39.28.28,0,0,0,.26-.17l.79-1.79h5.37l.83,1.79a.29.29,0,0,0,.37.14.28.28,0,0,0,.14-.37Zm-2.61,6.15L200,120l2.5,5.36Z"/><path class="cls-1" d="M217.93,124a.28.28,0,0,0-.28.28v2.08a3.88,3.88,0,0,1-2.41.85,3.85,3.85,0,1,1,2.5-6.78.28.28,0,1,0,.37-.42,4.41,4.41,0,1,0-2.87,7.75,4.47,4.47,0,0,0,2.87-1.07.31.31,0,0,0,.09-.22v-2.21A.28.28,0,0,0,217.93,124Z"/><path class="cls-1" d="M224.35,119.16a.27.27,0,0,0-.25-.15.29.29,0,0,0-.26.17l-3.64,8.26a.28.28,0,0,0,.25.39.28.28,0,0,0,.26-.17l.79-1.79h5.37l.83,1.79a.29.29,0,0,0,.37.14.28.28,0,0,0,.14-.37Zm-2.61,6.15,2.36-5.36,2.5,5.36Z"/><path class="cls-1" d="M233.62,123.3l-1.68-.4a1.71,1.71,0,0,1,.4-3.38h1.9a.28.28,0,0,0,0-.56h-1.9a2.27,2.27,0,0,0-.54,4.48l1.7.4a1.72,1.72,0,0,1-.42,3.38h-2.44a.28.28,0,0,0,0,.56h2.44a2.27,2.27,0,0,0,.54-4.48Z"/><path class="cls-1" d="M242.8,119h-5.87a.28.28,0,0,0,0,.56h2.66v8a.28.28,0,1,0,.56,0v-8h2.66a.28.28,0,1,0,0-.56Z"/><path class="cls-1" d="M250.88,121.31a2.34,2.34,0,0,0-2.33-2.35h-2.93a.29.29,0,0,0-.28.28v8.26a.28.28,0,1,0,.56,0v-3.86h2.49l2,4a.29.29,0,0,0,.25.15.28.28,0,0,0,.25-.4L249,123.6A2.32,2.32,0,0,0,250.88,121.31Zm-2.29,1.78h-2.7v-3.57h2.66a1.78,1.78,0,0,1,0,3.57Z"/><path class="cls-1" d="M257,119a4.4,4.4,0,1,0,4.42,4.4A4.44,4.44,0,0,0,257,119Zm0,8.25a3.85,3.85,0,1,1,3.86-3.85A3.88,3.88,0,0,1,257,127.27Z"/><path class="cls-1" d="M269.84,119a.28.28,0,0,0-.28.28v7.4l-5.47-7.55a.29.29,0,0,0-.32-.11.27.27,0,0,0-.19.26v8.26a.28.28,0,1,0,.56,0v-7.4l5.47,7.55a.27.27,0,0,0,.23.12.29.29,0,0,0,.28-.28v-8.26A.29.29,0,0,0,269.84,119Z"/><path class="cls-1" d="M275.74,117l1.47-.8,1.45.8a.2.2,0,0,0,.26-.08.18.18,0,0,0-.08-.25l-1.54-.85a.22.22,0,0,0-.09,0,.22.22,0,0,0-.09,0l-1.54.85a.18.18,0,1,0,.17.32Z"/><path class="cls-1" d="M277,119a4.4,4.4,0,1,0,4.42,4.4A4.44,4.44,0,0,0,277,119Zm0,8.25a3.85,3.85,0,1,1,3.86-3.85A3.88,3.88,0,0,1,277,127.27Z"/><path class="cls-1" d="M293.57,119a.26.26,0,0,0-.31.11l-4.43,7.18-4.43-7.18a.28.28,0,0,0-.51.15v8.25a.28.28,0,1,0,.56,0v-7.27L288.6,127a.26.26,0,0,0,.46,0l4.15-6.72v7.27a.28.28,0,0,0,.56,0v-8.25A.26.26,0,0,0,293.57,119Z"/><path class="cls-1" d="M298.92,119.55a.28.28,0,1,0,0-.56h-2.36a.28.28,0,1,0,0,.56h.9v7.71h-.9a.28.28,0,1,0,0,.56h2.36a.28.28,0,1,0,0-.56H298v-7.71Z"/><path class="cls-1" d="M305.27,119.55a3.83,3.83,0,0,1,2.5.93.28.28,0,0,0,.4,0,.29.29,0,0,0,0-.39,4.47,4.47,0,0,0-2.87-1.07,4.41,4.41,0,0,0,0,8.82,4.47,4.47,0,0,0,2.87-1.07.29.29,0,0,0,0-.39.28.28,0,0,0-.4,0,3.85,3.85,0,1,1-2.5-6.78Z"/><path class="cls-1" d="M318.06,127.43l-3.86-8.26a.28.28,0,0,0-.25-.15.29.29,0,0,0-.26.17L310,127.44a.28.28,0,0,0,.25.39.28.28,0,0,0,.26-.17l.79-1.79h5.37l.83,1.79a.29.29,0,0,0,.37.14A.28.28,0,0,0,318.06,127.43Zm-6.47-2.12,2.36-5.36,2.5,5.36Z"/></svg>