<svg id="Layer_1" data-name="Layer 1" xmlns="http://www.w3.org/2000/svg" viewBox="0 0 87.33 92.67"><defs><style>.cls-1{fill:#fff;}</style></defs><title>garfoefaca_branco</title><path class="cls-1" d="M29.87,17.61A10.57,10.57,0,0,0,21.43,13,10.57,10.57,0,0,0,13,17.61,17.4,17.4,0,0,0,9.71,28a18.39,18.39,0,0,0,1.62,7.65,12.83,12.83,0,0,0,1.24,2.11l1.79,2.48.4.57c.87,1.22,1.78,2.48,1.78,3.84,0,1.74-.8,34.41-.91,36.09h0v0a1.73,1.73,0,0,0,.78,1.64,9.11,9.11,0,0,0,10,0,1.7,1.7,0,0,0,.78-1.63c-.09-1.32-.87-34.55-.87-36.12,0-1.4.91-2.68,1.79-3.92l2.14-3a13,13,0,0,0,1.24-2.11A18.39,18.39,0,0,0,33.15,28,17.39,17.39,0,0,0,29.87,17.61Zm-7,27.09c0,.12.63,28.82.85,35.31a5.61,5.61,0,0,1-4.67,0c.23-6.53.88-35.2.88-35.31,0-2.46-1.34-4.34-2.42-5.85l-.4-.55L15.36,35.8a9.32,9.32,0,0,1-.91-1.54A14.92,14.92,0,0,1,13.14,28c0-6.38,3.72-11.58,8.29-11.58S29.71,21.66,29.71,28a14.94,14.94,0,0,1-1.31,6.21h0a9.27,9.27,0,0,1-.91,1.54l-2.14,3C24.26,40.31,22.91,42.21,22.91,44.7Z"/><path class="cls-1" d="M45.43,28.53A1.42,1.42,0,0,0,44,29.94V31.4a1.42,1.42,0,0,0,2.83,0V29.94a1.42,1.42,0,0,0-1.42-1.42Zm0,0"/><path class="cls-1" d="M17.48,28.8a1.42,1.42,0,0,0-2.82.24,12.16,12.16,0,0,0,.8,3.47,1.42,1.42,0,1,0,2.63-1,9.3,9.3,0,0,1-.61-2.66Zm0,0"/><path class="cls-1" d="M21.43,18.45c-2.49,0-4.78,1.85-6,4.84a1.42,1.42,0,1,0,2.63,1c.75-1.88,2-3.05,3.34-3.05a1.42,1.42,0,0,0,0-2.83Zm0,0"/><path class="cls-1" d="M43.28,71.28A17.26,17.26,0,0,1,46.84,66c.24-10.08.48-21.19.48-21.26A11,11,0,0,0,41.08,35c0-3.24,0-12.69,0-18.07h2.66v7.92a1.72,1.72,0,1,0,3.43,0V16.91h3.29V31.4a1.72,1.72,0,0,0,3.43,0V16.91h2.66c0,5.38,0,14.83,0,18.07a11,11,0,0,0-6.24,9.72c0,.06.2,9,.41,18.16a23.77,23.77,0,0,1,3.39-1.79c-.19-8.09-.36-15.65-.36-16.38a7.58,7.58,0,0,1,5-6.92,1.72,1.72,0,0,0,1.2-1.54c0-.28,0-9.27,0-18.45v-2.6a1.72,1.72,0,0,0-1.72-1.72H39.34a1.72,1.72,0,0,0-1.72,1.72v2.6c0,9.18,0,18.17,0,18.45a1.72,1.72,0,0,0,1.2,1.54,7.58,7.58,0,0,1,5,6.92C43.88,45.85,43.54,60.76,43.28,71.28Z"/><path class="cls-1" d="M43,82.09a1.74,1.74,0,0,0,.22.57C43.15,82.47,43.08,82.28,43,82.09Z"/><path class="cls-1" d="M78.72,76.5H76.2C74.47,69.93,69.37,64.8,63.63,64V60.52h3.09a1,1,0,0,0,1-1V58.25a1,1,0,0,0-1-1H57.36a1,1,0,0,0-1,1v1.23a1,1,0,0,0,1,1h3V64c-5.73.83-10.84,6-12.57,12.53H45.29a3.68,3.68,0,1,0,0,7.36H78.72a3.68,3.68,0,1,0,0-7.36ZM62,66.82c4.73,0,9.34,4,11.11,9.67H50.9C52.66,70.87,57.28,66.82,62,66.82ZM78.72,80.88H45.29a.7.7,0,0,1,0-1.39H78.72a.7.7,0,0,1,0,1.39Z"/></svg>