<svg id="Layer_1" data-name="Layer 1" xmlns="http://www.w3.org/2000/svg" viewBox="0 0 163.66 95.4"><defs><style>.cls-1{fill:#162e63;}.cls-2{fill:#f0c41b;}.cls-3{fill:#f3d55c;}.cls-4{fill:#5c6d91;}.cls-5{fill:#fff;}.cls-6{fill:#efc75e;}</style></defs><title>cartaovisa</title><rect class="cls-1" width="163.66" height="95.4"/><path class="cls-2" d="M51.79,40.92H28.88a2.13,2.13,0,0,1-2.13-2.13V22.68a2.13,2.13,0,0,1,2.13-2.13H51.79a2.13,2.13,0,0,1,2.13,2.13V38.79a2.13,2.13,0,0,1-2.13,2.13"/><path class="cls-3" d="M51.79,42.62H28.88A3.83,3.83,0,0,1,25,38.79V22.68a3.83,3.83,0,0,1,3.83-3.83H51.79a3.84,3.84,0,0,1,3.83,3.83V38.79a3.84,3.84,0,0,1-3.83,3.83M28.88,22.24a.43.43,0,0,0-.43.43V38.79a.44.44,0,0,0,.43.44H51.79a.44.44,0,0,0,.43-.44V22.68a.43.43,0,0,0-.43-.43Zm0,0"/><path class="cls-2" d="M53.92,22.68a2.13,2.13,0,0,0-2.13-2.13H39.07a2.13,2.13,0,0,0-2.13,2.13V38.79a2.13,2.13,0,0,0,2.13,2.13H41.6a2.13,2.13,0,0,0,2.13-2.13V29.47a2.13,2.13,0,0,1,2.13-2.13h5.93a2.13,2.13,0,0,0,2.13-2.13Zm0,0"/><path class="cls-3" d="M41.6,42.62H39.07a3.83,3.83,0,0,1-3.83-3.83V22.68a3.83,3.83,0,0,1,3.83-3.83H51.79a3.84,3.84,0,0,1,3.83,3.83V25.2A3.84,3.84,0,0,1,51.79,29H45.86a.43.43,0,0,0-.43.43v9.32a3.83,3.83,0,0,1-3.83,3.83M39.07,22.24a.43.43,0,0,0-.43.43V38.79a.43.43,0,0,0,.43.44H41.6a.44.44,0,0,0,.43-.44V29.47a3.83,3.83,0,0,1,3.83-3.83h5.93a.43.43,0,0,0,.43-.43V22.68a.43.43,0,0,0-.43-.43Zm0,0"/><path class="cls-3" d="M53.92,35.83H43.73a1.7,1.7,0,1,1,0-3.4H53.92a1.7,1.7,0,0,1,0,3.4"/><path class="cls-3" d="M36.94,29H26.75a1.7,1.7,0,0,1,0-3.4H36.94a1.7,1.7,0,1,1,0,3.4"/><path class="cls-3" d="M36.94,35.83H26.75a1.7,1.7,0,0,1,0-3.4H36.94a1.7,1.7,0,1,1,0,3.4"/><path class="cls-4" d="M46.88,58.34H27.23a2.19,2.19,0,0,0,0,4.37H46.88a2.19,2.19,0,0,0,0-4.37"/><path class="cls-4" d="M77.44,60.53a2.18,2.18,0,0,0-2.19-2.19H55.61a2.19,2.19,0,0,0,0,4.37H75.26a2.18,2.18,0,0,0,2.19-2.19"/><path class="cls-4" d="M108.6,60.53a2.21,2.21,0,0,0-2.24-2.19H86.23a2.19,2.19,0,1,0,0,4.37h20.14a2.21,2.21,0,0,0,2.24-2.19"/><path class="cls-4" d="M29.42,69.26H27.23a2.19,2.19,0,1,0,0,4.37h2.19a2.19,2.19,0,0,0,0-4.37"/><path class="cls-4" d="M42.51,69.26H38.15a2.19,2.19,0,1,0,0,4.37h4.36a2.19,2.19,0,1,0,0-4.37"/><path class="cls-4" d="M53.42,69.26H51.25a2.19,2.19,0,1,0,0,4.37h2.17a2.19,2.19,0,1,0,0-4.37"/><path class="cls-4" d="M135.63,58.34H116a2.19,2.19,0,0,0,0,4.37h19.65a2.19,2.19,0,0,0,0-4.37"/><path class="cls-4" d="M120.44,69.26h-2.19a2.19,2.19,0,1,0,0,4.37h2.19a2.19,2.19,0,0,0,0-4.37"/><path class="cls-4" d="M135.63,69.26h-4.36a2.19,2.19,0,1,0,0,4.37h4.36a2.19,2.19,0,1,0,0-4.37"/><path class="cls-4" d="M66.52,69.26H62.17a2.19,2.19,0,1,0,0,4.37h4.36a2.19,2.19,0,1,0,0-4.37"/><path class="cls-4" d="M73.71,69.89a2.32,2.32,0,0,0-.63,1.56A2.28,2.28,0,0,0,73.71,73a2.25,2.25,0,0,0,1.54.64,2.19,2.19,0,1,0-1.54-3.74"/><path class="cls-4" d="M88.34,69.26H86.17a2.19,2.19,0,1,0,0,4.37h2.17a2.19,2.19,0,0,0,0-4.37"/><path class="cls-4" d="M99,69.26H94.66a2.19,2.19,0,1,0,0,4.37H99a2.19,2.19,0,0,0,0-4.37"/><path class="cls-4" d="M104.87,69.89a2.32,2.32,0,0,0-.63,1.56,2.28,2.28,0,0,0,.63,1.54,2.25,2.25,0,0,0,1.54.64,2.19,2.19,0,1,0-1.54-3.74"/><path class="cls-5" d="M113.62,29.81l-2.05,12.78h3.28l2.05-12.78Zm9.9,5.21c-1.15-.57-1.85-.95-1.85-1.53s.59-1.07,1.89-1.07a5.71,5.71,0,0,1,2.44.47l.3.13.45-2.67a8.28,8.28,0,0,0-2.95-.53c-3.24,0-5.52,1.69-5.54,4.1,0,1.78,1.63,2.77,2.88,3.36s1.7,1,1.7,1.54c0,.83-1,1.21-2,1.21a6.68,6.68,0,0,1-3.08-.66l-.43-.2L116.91,42a10.25,10.25,0,0,0,3.66.66c3.44,0,5.69-1.66,5.72-4.23,0-1.41-.86-2.49-2.76-3.37Zm11.65-5.17h-2.54a1.63,1.63,0,0,0-1.72,1L126,42.59h3.44l.95-2.54h3.85l.49,2.55h3Zm-3.78,7.65c.07,0,1.32-4.14,1.32-4.14l1,4.14Zm-22.56-7.69-3.22,8.68-.35-1.71a9.54,9.54,0,0,0-4.54-5.19l2.95,11h3.47l5.16-12.77h-3.47Zm0,0"/><path class="cls-6" d="M104.18,31.46A2.14,2.14,0,0,0,102,29.81H96.95L96.9,30c4,1,7.31,4,8.39,6.83Zm0,0"/></svg>