<svg id="Layer_1" data-name="Layer 1" xmlns="http://www.w3.org/2000/svg" viewBox="0 0 163.66 95.4"><defs><style>.cls-1{fill:#4b5460;}.cls-2{fill:#f0c41b;}.cls-3{fill:#f3d55c;}.cls-4{fill:#fff;}.cls-5{fill:#931b1d;}.cls-6{fill:#f16622;}.cls-7{fill:#f7981d;}.cls-8{fill:#cb2026;}</style></defs><title>cartao_mastercard</title><rect class="cls-1" width="163.66" height="95.4"/><path class="cls-2" d="M51.79,40.92H28.88a2.13,2.13,0,0,1-2.13-2.13V22.68a2.13,2.13,0,0,1,2.13-2.13H51.79a2.13,2.13,0,0,1,2.13,2.13V38.79a2.13,2.13,0,0,1-2.13,2.13"/><path class="cls-3" d="M51.79,42.62H28.88A3.83,3.83,0,0,1,25,38.79V22.68a3.83,3.83,0,0,1,3.83-3.83H51.79a3.84,3.84,0,0,1,3.83,3.83V38.79a3.84,3.84,0,0,1-3.83,3.83M28.88,22.24a.43.43,0,0,0-.43.43V38.79a.44.44,0,0,0,.43.44H51.79a.44.44,0,0,0,.43-.44V22.68a.43.43,0,0,0-.43-.43Zm0,0"/><path class="cls-2" d="M53.92,22.68a2.13,2.13,0,0,0-2.13-2.13H39.07a2.13,2.13,0,0,0-2.13,2.13V38.79a2.13,2.13,0,0,0,2.13,2.13H41.6a2.13,2.13,0,0,0,2.13-2.13V29.47a2.13,2.13,0,0,1,2.13-2.13h5.93a2.13,2.13,0,0,0,2.13-2.13Zm0,0"/><path class="cls-3" d="M41.6,42.62H39.07a3.83,3.83,0,0,1-3.83-3.83V22.68a3.83,3.83,0,0,1,3.83-3.83H51.79a3.84,3.84,0,0,1,3.83,3.83V25.2A3.84,3.84,0,0,1,51.79,29H45.86a.43.43,0,0,0-.43.43v9.32a3.83,3.83,0,0,1-3.83,3.83M39.07,22.24a.43.43,0,0,0-.43.43V38.79a.43.43,0,0,0,.43.44H41.6a.44.44,0,0,0,.43-.44V29.47a3.83,3.83,0,0,1,3.83-3.83h5.93a.43.43,0,0,0,.43-.43V22.68a.43.43,0,0,0-.43-.43Zm0,0"/><path class="cls-3" d="M53.92,35.83H43.73a1.7,1.7,0,1,1,0-3.4H53.92a1.7,1.7,0,0,1,0,3.4"/><path class="cls-3" d="M36.94,29H26.75a1.7,1.7,0,0,1,0-3.4H36.94a1.7,1.7,0,1,1,0,3.4"/><path class="cls-3" d="M36.94,35.83H26.75a1.7,1.7,0,0,1,0-3.4H36.94a1.7,1.7,0,1,1,0,3.4"/><path class="cls-4" d="M46.88,58.34H27.23a2.19,2.19,0,0,0,0,4.37H46.88a2.19,2.19,0,0,0,0-4.37"/><path class="cls-4" d="M77.44,60.53a2.18,2.18,0,0,0-2.19-2.19H55.61a2.19,2.19,0,0,0,0,4.37H75.26a2.18,2.18,0,0,0,2.19-2.19"/><path class="cls-4" d="M108.6,60.53a2.21,2.21,0,0,0-2.24-2.19H86.23a2.19,2.19,0,1,0,0,4.37h20.14a2.21,2.21,0,0,0,2.24-2.19"/><path class="cls-4" d="M29.42,69.26H27.23a2.19,2.19,0,1,0,0,4.37h2.19a2.19,2.19,0,0,0,0-4.37"/><path class="cls-4" d="M42.51,69.26H38.15a2.19,2.19,0,1,0,0,4.37h4.36a2.19,2.19,0,1,0,0-4.37"/><path class="cls-4" d="M53.42,69.26H51.25a2.19,2.19,0,1,0,0,4.37h2.17a2.19,2.19,0,1,0,0-4.37"/><path class="cls-4" d="M135.63,58.34H116a2.19,2.19,0,0,0,0,4.37h19.65a2.19,2.19,0,0,0,0-4.37"/><path class="cls-4" d="M120.44,69.26h-2.19a2.19,2.19,0,1,0,0,4.37h2.19a2.19,2.19,0,0,0,0-4.37"/><path class="cls-4" d="M135.63,69.26h-4.36a2.19,2.19,0,1,0,0,4.37h4.36a2.19,2.19,0,1,0,0-4.37"/><path class="cls-4" d="M66.52,69.26H62.17a2.19,2.19,0,1,0,0,4.37h4.36a2.19,2.19,0,1,0,0-4.37"/><path class="cls-4" d="M73.71,69.89a2.32,2.32,0,0,0-.63,1.56A2.28,2.28,0,0,0,73.71,73a2.25,2.25,0,0,0,1.54.64,2.19,2.19,0,1,0-1.54-3.74"/><path class="cls-4" d="M88.34,69.26H86.17a2.19,2.19,0,1,0,0,4.37h2.17a2.19,2.19,0,0,0,0-4.37"/><path class="cls-4" d="M99,69.26H94.66a2.19,2.19,0,1,0,0,4.37H99a2.19,2.19,0,0,0,0-4.37"/><path class="cls-4" d="M104.87,69.89a2.32,2.32,0,0,0-.63,1.56,2.28,2.28,0,0,0,.63,1.54,2.25,2.25,0,0,0,1.54.64,2.19,2.19,0,1,0-1.54-3.74"/><path class="cls-5" d="M107.92,19.45a12.06,12.06,0,1,0,8.17,21h0a12.07,12.07,0,0,0,1.22-1.29h-2.47a11.73,11.73,0,0,1-.9-1.24h4.25a12.08,12.08,0,0,0,.7-1.29h-5.65a11.76,11.76,0,0,1-.5-1.27h6.66a12,12,0,0,0,.62-3.82,12.16,12.16,0,0,0-.28-2.58H112.4a12.36,12.36,0,0,1,.34-1.27h6.66a12.21,12.21,0,0,0-.52-1.29h-5.63a11.63,11.63,0,0,1,.69-1.27h4.25a12,12,0,0,0-.93-1.29h-2.37a11,11,0,0,1,1.21-1.22,12,12,0,0,0-8.1-3.14Zm0,0"/><path class="cls-6" d="M136.17,31.51a12,12,0,1,1-24.07,0h0a12,12,0,1,1,24.07,0Zm0,0"/><path class="cls-7" d="M136.17,31.65a12,12,0,1,1-24.07,0h0a12,12,0,1,1,24.07,0Zm0,0"/><path class="cls-8" d="M107.92,19.59a12.06,12.06,0,1,0,8.17,21h0a11.86,11.86,0,0,0,1.22-1.29h-2.47A11.61,11.61,0,0,1,114,38h4.25a12.21,12.21,0,0,0,.7-1.29h-5.65a11.89,11.89,0,0,1-.5-1.27h6.66a12,12,0,0,0,.62-3.83,12.16,12.16,0,0,0-.28-2.58H112.4a12.44,12.44,0,0,1,.34-1.27h6.66a12.26,12.26,0,0,0-.52-1.29h-5.63a11.77,11.77,0,0,1,.69-1.27h4.25a12.2,12.2,0,0,0-.93-1.29h-2.37a11.16,11.16,0,0,1,1.21-1.22,12,12,0,0,0-8.1-3.14Zm0,0"/><path class="cls-4" d="M112.33,34.72l.16-1.09c-.09,0-.22,0-.33,0-.45,0-.5-.24-.47-.41l.36-2.23h.68l.16-1.21h-.64l.13-.75H111.1s-.76,4.22-.76,4.73a1,1,0,0,0,1,1.09,3.35,3.35,0,0,0,1-.17Zm0,0"/><path class="cls-4" d="M112.73,32.64a2,2,0,0,0,2.21,2.25,3.24,3.24,0,0,0,1.35-.21l.23-1.24a4,4,0,0,1-1.36.32c-1.38,0-1.13-1-1.13-1h2.6a9.33,9.33,0,0,0,.17-1.17A1.72,1.72,0,0,0,115,29.67c-1.29,0-2.24,1.39-2.24,3ZM115,30.82c.72,0,.59.81.59.88h-1.42c0-.08.13-.88.83-.88Zm0,0"/><path class="cls-4" d="M123.09,34.72l.23-1.4a3.07,3.07,0,0,1-1.06.32A1.27,1.27,0,0,1,121,32.19c0-1.52.78-2.35,1.65-2.35a2.28,2.28,0,0,1,1.18.37l.21-1.36a4.59,4.59,0,0,0-1.44-.32c-1.48,0-2.92,1.28-2.92,3.7,0,1.6.78,2.66,2.31,2.66a5.9,5.9,0,0,0,1.12-.18Zm0,0"/><path class="cls-4" d="M105.28,29.69a4.42,4.42,0,0,0-1.55.28l-.19,1.11a4.05,4.05,0,0,1,1.4-.23c.48,0,.83.05.83.44a.82.82,0,0,1,0,.32s-.38,0-.55,0c-1.11,0-2.27.47-2.27,1.9a1.22,1.22,0,0,0,1.24,1.38,1.66,1.66,0,0,0,1.31-.59l0,.49h1.13l.5-3.54a1.52,1.52,0,0,0-1.76-1.55Zm.28,2.88c0,.22-.14,1.23-.91,1.23a.47.47,0,0,1-.5-.48c0-.35.19-.77,1.13-.77a.84.84,0,0,1,.28,0Zm0,0"/><path class="cls-4" d="M108.24,34.85c.29,0,1.94.07,1.94-1.63s-1.53-1.28-1.53-1.92c0-.32.25-.42.7-.42.18,0,.88.06.88.06l.16-1.13a6,6,0,0,0-1.18-.1c-.95,0-1.91.38-1.91,1.68,0,1.47,1.6,1.32,1.6,1.94,0,.41-.45.45-.79.45a4.13,4.13,0,0,1-1.14-.2l-.17,1.12a4,4,0,0,0,1.44.16Zm0,0"/><path class="cls-4" d="M133.7,28.68l-.28,1.72a1.69,1.69,0,0,0-1.24-.67c-1.17,0-2.15,1.42-2.15,3,0,1.05.52,2.08,1.59,2.08a1.6,1.6,0,0,0,1.19-.54l-.06.46H134l1-6.11ZM133.11,32c0,.68-.34,1.58-1,1.58-.46,0-.68-.39-.68-1,0-1,.45-1.65,1-1.65s.7.32.7,1.07Zm0,0"/><path class="cls-4" d="M98.34,34.78l.78-4.61.11,4.61h.88l1.65-4.61L101,34.78h1.31l1-6.11h-2l-1.26,3.75L100,28.67H98.13l-1,6.11Zm0,0"/><path class="cls-4" d="M118.08,34.79c.37-2.12.44-3.85,1.33-3.54a5,5,0,0,1,.48-1.49,1.3,1.3,0,0,0-.25,0c-.57,0-1,.79-1,.79l.11-.72h-1.19l-.8,5Zm0,0"/><path class="cls-4" d="M126,29.69a4.42,4.42,0,0,0-1.55.28l-.19,1.11a4,4,0,0,1,1.4-.23c.48,0,.83.05.83.44a.81.81,0,0,1,0,.32s-.38,0-.55,0c-1.11,0-2.27.47-2.27,1.9a1.22,1.22,0,0,0,1.24,1.38,1.66,1.66,0,0,0,1.31-.59l0,.49h1.13l.5-3.54A1.52,1.52,0,0,0,126,29.69Zm.28,2.88c0,.22-.13,1.23-.91,1.23a.47.47,0,0,1-.5-.48c0-.35.19-.77,1.13-.77a.85.85,0,0,1,.28,0Zm0,0"/><path class="cls-4" d="M128.84,34.79c.37-2.12.44-3.85,1.33-3.54a5,5,0,0,1,.48-1.49,1.32,1.32,0,0,0-.25,0c-.57,0-1,.79-1,.79l.11-.72h-1.19l-.8,5Zm0,0"/></svg>