<svg id="Layer_1" data-name="Layer 1" xmlns="http://www.w3.org/2000/svg" viewBox="0 0 512 512"><defs><style>.cls-1{fill:red;}.cls-2{fill:#fff;}</style></defs><title>pagamentos_iconcartao</title><path class="cls-1" d="M458.67,426.67H53.33A53.41,53.41,0,0,1,0,373.33V138.67A53.41,53.41,0,0,1,53.33,85.33H458.67A53.41,53.41,0,0,1,512,138.67V373.33A53.41,53.41,0,0,1,458.67,426.67Z"/><path class="cls-2" d="M467.79,234.67H44.21c-5.08,0-9.21-4.78-9.21-10.67V160c0-5.89,4.13-10.67,9.21-10.67H467.79c5.08,0,9.21,4.78,9.21,10.67v64C477,229.89,472.87,234.67,467.79,234.67Z"/><path class="cls-2" d="M160,320H74.67a10.67,10.67,0,1,1,0-21.33H160A10.67,10.67,0,1,1,160,320Z"/><path class="cls-2" d="M224,362.67H74.67a10.67,10.67,0,0,1,0-21.33H224a10.67,10.67,0,1,1,0,21.33Z"/></svg>