<svg id="Layer_1" data-name="Layer 1" xmlns="http://www.w3.org/2000/svg" viewBox="0 0 163.66 95.4"><defs><style>.cls-1{fill:#27ade4;}.cls-2{fill:#f0c41b;}.cls-3{fill:#f3d55c;}.cls-4{fill:#fff;}</style></defs><title>cartao_americanexpress</title><rect class="cls-1" width="163.66" height="95.4"/><path class="cls-2" d="M51.79,40.92H28.88a2.13,2.13,0,0,1-2.13-2.13V22.68a2.13,2.13,0,0,1,2.13-2.13H51.79a2.13,2.13,0,0,1,2.13,2.13V38.79a2.13,2.13,0,0,1-2.13,2.13"/><path class="cls-3" d="M51.79,42.62H28.88A3.83,3.83,0,0,1,25,38.79V22.68a3.83,3.83,0,0,1,3.83-3.83H51.79a3.84,3.84,0,0,1,3.83,3.83V38.79a3.84,3.84,0,0,1-3.83,3.83M28.88,22.24a.43.43,0,0,0-.43.43V38.79a.44.44,0,0,0,.43.44H51.79a.44.44,0,0,0,.43-.44V22.68a.43.43,0,0,0-.43-.43Zm0,0"/><path class="cls-2" d="M53.92,22.68a2.13,2.13,0,0,0-2.13-2.13H39.07a2.13,2.13,0,0,0-2.13,2.13V38.79a2.13,2.13,0,0,0,2.13,2.13H41.6a2.13,2.13,0,0,0,2.13-2.13V29.47a2.13,2.13,0,0,1,2.13-2.13h5.93a2.13,2.13,0,0,0,2.13-2.13Zm0,0"/><path class="cls-3" d="M41.6,42.62H39.07a3.83,3.83,0,0,1-3.83-3.83V22.68a3.83,3.83,0,0,1,3.83-3.83H51.79a3.84,3.84,0,0,1,3.83,3.83V25.2A3.84,3.84,0,0,1,51.79,29H45.86a.43.43,0,0,0-.43.43v9.32a3.83,3.83,0,0,1-3.83,3.83M39.07,22.24a.43.43,0,0,0-.43.43V38.79a.43.43,0,0,0,.43.44H41.6a.44.44,0,0,0,.43-.44V29.47a3.83,3.83,0,0,1,3.83-3.83h5.93a.43.43,0,0,0,.43-.43V22.68a.43.43,0,0,0-.43-.43Zm0,0"/><path class="cls-3" d="M53.92,35.83H43.73a1.7,1.7,0,1,1,0-3.4H53.92a1.7,1.7,0,0,1,0,3.4"/><path class="cls-3" d="M36.94,29H26.75a1.7,1.7,0,0,1,0-3.4H36.94a1.7,1.7,0,1,1,0,3.4"/><path class="cls-3" d="M36.94,35.83H26.75a1.7,1.7,0,0,1,0-3.4H36.94a1.7,1.7,0,1,1,0,3.4"/><path class="cls-4" d="M46.88,58.34H27.23a2.19,2.19,0,0,0,0,4.37H46.88a2.19,2.19,0,0,0,0-4.37"/><path class="cls-4" d="M77.44,60.53a2.18,2.18,0,0,0-2.19-2.19H55.61a2.19,2.19,0,0,0,0,4.37H75.26a2.18,2.18,0,0,0,2.19-2.19"/><path class="cls-4" d="M108.6,60.53a2.21,2.21,0,0,0-2.24-2.19H86.23a2.19,2.19,0,1,0,0,4.37h20.14a2.21,2.21,0,0,0,2.24-2.19"/><path class="cls-4" d="M29.42,69.26H27.23a2.19,2.19,0,1,0,0,4.37h2.19a2.19,2.19,0,0,0,0-4.37"/><path class="cls-4" d="M42.51,69.26H38.15a2.19,2.19,0,1,0,0,4.37h4.36a2.19,2.19,0,1,0,0-4.37"/><path class="cls-4" d="M53.42,69.26H51.25a2.19,2.19,0,1,0,0,4.37h2.17a2.19,2.19,0,1,0,0-4.37"/><path class="cls-4" d="M135.63,58.34H116a2.19,2.19,0,0,0,0,4.37h19.65a2.19,2.19,0,0,0,0-4.37"/><path class="cls-4" d="M120.44,69.26h-2.19a2.19,2.19,0,1,0,0,4.37h2.19a2.19,2.19,0,0,0,0-4.37"/><path class="cls-4" d="M135.63,69.26h-4.36a2.19,2.19,0,1,0,0,4.37h4.36a2.19,2.19,0,1,0,0-4.37"/><path class="cls-4" d="M66.52,69.26H62.17a2.19,2.19,0,1,0,0,4.37h4.36a2.19,2.19,0,1,0,0-4.37"/><path class="cls-4" d="M73.71,69.89a2.32,2.32,0,0,0-.63,1.56A2.28,2.28,0,0,0,73.71,73a2.25,2.25,0,0,0,1.54.64,2.19,2.19,0,1,0-1.54-3.74"/><path class="cls-4" d="M88.34,69.26H86.17a2.19,2.19,0,1,0,0,4.37h2.17a2.19,2.19,0,0,0,0-4.37"/><path class="cls-4" d="M99,69.26H94.66a2.19,2.19,0,1,0,0,4.37H99a2.19,2.19,0,0,0,0-4.37"/><path class="cls-4" d="M104.87,69.89a2.32,2.32,0,0,0-.63,1.56,2.28,2.28,0,0,0,.63,1.54,2.25,2.25,0,0,0,1.54.64,2.19,2.19,0,1,0-1.54-3.74"/><path class="cls-4" d="M95.19,27.93l-.84-2.07-.83,2.07m20.11-.82a1.11,1.11,0,0,1-.6.11h-1.49V26.06H113a1.24,1.24,0,0,1,.58.09.48.48,0,0,1,.26.46.53.53,0,0,1-.25.49m10.6.82-.85-2.07-.84,2.07Zm-19.76,2.24h-1.25V26.1l-1.77,4.06h-1.07L98.59,26.1v4.07H96.1L95.63,29H93.09l-.47,1.16H91.28L93.47,25h1.82l2.08,4.91V25h2L101,28.5,102.44,25h2Zm5,0h-4.09V25h4.09v1.08h-2.86V27h2.79v1.06h-2.79v1h2.86Zm5.76-3.79a1.46,1.46,0,0,1-.86,1.38,1.42,1.42,0,0,1,.6.44,1.5,1.5,0,0,1,.2,1v1h-1.23v-.65a1.58,1.58,0,0,0-.19-1c-.18-.18-.45-.22-.89-.22h-1.31v1.89h-1.22V25h2.81a2.84,2.84,0,0,1,1.48.25,1.21,1.21,0,0,1,.62,1.15m2,3.79h-1.25V25h1.25Zm14.48,0h-1.73l-2.32-3.89v3.89h-2.49L124.65,29h-2.54l-.46,1.16h-1.43a2.55,2.55,0,0,1-1.77-.57,2.63,2.63,0,0,1-.65-2,2.78,2.78,0,0,1,.66-2,2.46,2.46,0,0,1,1.86-.61h1.18v1.11h-1.16a1.17,1.17,0,0,0-.94.31,1.73,1.73,0,0,0-.35,1.18,1.81,1.81,0,0,0,.34,1.22,1.17,1.17,0,0,0,.85.27h.55L122.5,25h1.83l2.07,4.91V25h1.86l2.15,3.61V25h1.25Zm-40.4,1h2.09L93.83,30h1.05l.47,1.15h4.11v-.88l.37.88H102l.37-.9v.89h10.22V29.3h.2c.14,0,.18,0,.18.25v1.64h5.28v-.44a4.14,4.14,0,0,0,2,.44h2.22l.48-1.15h1.05l.47,1.15h4.28V30.09l.65,1.09h3.43V24h-3.4v.85l-.48-.85H125.4v.85L125,24h-4.71a4.19,4.19,0,0,0-2,.42V24H115v.42a2,2,0,0,0-1.38-.42H101.71l-.8,1.87L100.09,24H96.35v.85L95.94,24H92.75l-1.48,3.44-1.7,3.79Zm0,0"/><path class="cls-4" d="M135.5,36.08V32.76h-3.06a2.53,2.53,0,0,0-1.53.42v-.42h-3.35a2.29,2.29,0,0,0-1.46.42v-.42h-6v.42a3.15,3.15,0,0,0-1.65-.42h-3.95v.42a2.76,2.76,0,0,0-1.72-.42h-4.42l-1,1.11-.95-1.11h-6.6V40h6.47l1-1.12,1,1.12h4V38.3h.39a4.11,4.11,0,0,0,1.7-.25v2h3.29V38.11h.16c.2,0,.22,0,.22.21V40h10a2.83,2.83,0,0,0,1.67-.46V40h3.17a4.2,4.2,0,0,0,1.79-.33h0a2.62,2.62,0,0,0,.8-3.57Zm-22.75,1.16h-1.53V39h-2.38l-1.51-1.72L105.78,39h-4.85V33.79h4.92l1.51,1.7,1.56-1.7h3.91c1,0,2.06.27,2.06,1.71s-1.06,1.74-2.13,1.74Zm7.36-.24a1.52,1.52,0,0,1,.2.95v1h-1.23v-.65a1.55,1.55,0,0,0-.2-1c-.18-.19-.45-.23-.9-.23h-1.31V39h-1.23V33.79h2.82a3,3,0,0,1,1.47.24,1.22,1.22,0,0,1,.63,1.15,1.45,1.45,0,0,1-.87,1.38,1.34,1.34,0,0,1,.6.44Zm5-2.14h-2.87v.94h2.8v1.06h-2.8v1h2.87V39h-4.08V33.79h4.08ZM128.27,39h-2.38V37.86h2.37a.71.71,0,0,0,.5-.13.47.47,0,0,0,.14-.34.45.45,0,0,0-.15-.34.64.64,0,0,0-.44-.11c-1.14,0-2.58,0-2.58-1.61a1.53,1.53,0,0,1,1.75-1.54h2.45v1.1H127.7a.83.83,0,0,0-.49.09.44.44,0,0,0,.08.76,1.41,1.41,0,0,0,.48.06l.66,0a2,2,0,0,1,1.4.42,1.45,1.45,0,0,1,.37,1.1c0,1.12-.69,1.64-1.92,1.64Zm6.3-.5A2.07,2.07,0,0,1,133,39h-2.36V37.86H133a.68.68,0,0,0,.5-.13.46.46,0,0,0,.14-.34.43.43,0,0,0-.15-.34.61.61,0,0,0-.43-.11c-1.15,0-2.58,0-2.58-1.61a1.53,1.53,0,0,1,1.76-1.54h2.39v1.1h-2.18a.84.84,0,0,0-.5.09.4.4,0,0,0-.18.37.39.39,0,0,0,.27.39,1.37,1.37,0,0,0,.47.06l.66,0a1.92,1.92,0,0,1,1.39.42.7.7,0,0,1,.11.13l0-.05a1.7,1.7,0,0,1-.1,2.16Zm-29.35-3.61,1.34,1.51-1.4,1.52h-3v-1h2.69V35.81h-2.69v-.94Zm2.91,1.53,1.88-2V38.5Zm5.44-.89c0,.45-.29.69-.76.69h-1.58V34.86h1.6c.44,0,.75.18.75.64Zm5.46-.08a.56.56,0,0,1-.25.5,1.16,1.16,0,0,1-.6.11h-1.49V34.86h1.51a1.19,1.19,0,0,1,.58.09.49.49,0,0,1,.25.47Zm0,0"/></svg>