<svg id="Layer_1" data-name="Layer 1" xmlns="http://www.w3.org/2000/svg" viewBox="0 0 186.72 169.19"><defs><style>.cls-1{fill:red;}</style></defs><title>pagamentos_iconcvv</title><path class="cls-1" d="M92.72,17.39a68.15,68.15,0,1,0,68.15,68.15A68.23,68.23,0,0,0,92.72,17.39Zm0,123.91a55.76,55.76,0,1,1,55.76-55.76A55.82,55.82,0,0,1,92.72,141.3Zm0,0"/><path class="cls-1" d="M92.72,46.3A8.26,8.26,0,1,0,101,54.57a8.27,8.27,0,0,0-8.26-8.26Zm0,0"/><path class="cls-1" d="M92.72,75.22a6.19,6.19,0,0,0-6.2,6.2v37.17a6.2,6.2,0,0,0,12.39,0V81.41a6.19,6.19,0,0,0-6.2-6.2Zm0,0"/></svg>