<svg id="Layer_1" data-name="Layer 1" xmlns="http://www.w3.org/2000/svg" viewBox="0 0 152 114"><defs><style>.cls-1{fill:#e52521;}</style></defs><title>icon_email</title><path class="cls-1" d="M134,86.7a14.41,14.41,0,0,1-1.87,7L95.38,52.58l36.35-31.81A14.44,14.44,0,0,1,134,28.5ZM75.8,60l50.58-44.26A14.36,14.36,0,0,0,119.45,14H32.15a14.31,14.31,0,0,0-6.93,1.83Zm14.1-2.68L78.2,67.62a3.65,3.65,0,0,1-4.79,0L61.7,57.36,24.48,99a14.37,14.37,0,0,0,7.67,2.24h87.3A14.37,14.37,0,0,0,127.12,99Zm-70-36.59A14.44,14.44,0,0,0,17.6,28.5V86.7a14.37,14.37,0,0,0,1.87,7L56.22,52.57Zm0,0"/></svg>