<svg id="Capa_1" data-name="Capa 1" xmlns="http://www.w3.org/2000/svg" viewBox="0 0 116 116"><defs><style>.cls-1{fill:red;}</style></defs><title>icone_senha</title><path class="cls-1" d="M92.94,45.67H86.78V37.44a28.78,28.78,0,1,0-57.56,0v8.22H23.06A2.05,2.05,0,0,0,21,47.72V99.11a8.23,8.23,0,0,0,8.22,8.22H86.78A8.23,8.23,0,0,0,95,99.11V47.72A2.05,2.05,0,0,0,92.94,45.67ZM62.86,76.95l1.3,11.66a2.06,2.06,0,0,1-2,2.28H53.89a2.06,2.06,0,0,1-2-2.28l1.3-11.66a8.13,8.13,0,0,1-3.36-6.61,8.22,8.22,0,0,1,16.44,0A8.13,8.13,0,0,1,62.86,76.95ZM74.44,45.67H41.56V37.44a16.44,16.44,0,0,1,32.89,0Z"/></svg>